<svg width="20" 
    height="20" 
    viewBox="0 0 20 20" 
    fill="none" 
    xmlns="http://www.w3.org/2000/svg">
    <path fill-rule="evenodd" 
        clip-rule="evenodd" 
        d="M5.49976 7C5.99771 7.04527 5.99769 7.04542 5.99768 7.04556L5.99782 7.04413L5.9987 7.03527L6.00307 6.99543C6.00722 6.95936 6.01397 6.90479 6.02403 6.83438C6.04417 6.69344 6.07745 6.48974 6.1295 6.24438C6.23406 5.75145 6.41206 5.10124 6.70494 4.4569C7.29571 3.15721 8.28834 2 9.99976 2C11.7112 2 12.7038 3.15721 13.2946 4.4569C13.5875 5.10124 13.7655 5.75145 13.87 6.24438C13.9221 6.48974 13.9554 6.69344 13.9755 6.83438C13.9855 6.90479 13.9923 6.95936 13.9965 6.99543L14.0008 7.03527L14.0017 7.04413L14.0018 7.04556C14.0018 7.04542 14.0018 7.04527 14.4998 7C14.9977 6.95473 14.9977 6.95454 14.9977 6.95432L14.9976 6.95378L14.9975 6.95232L14.9971 6.9479L14.9956 6.93317C14.9943 6.92078 14.9924 6.90329 14.9899 6.88103C14.9848 6.83654 14.9769 6.77294 14.9654 6.69296C14.9426 6.53312 14.9056 6.30713 14.8483 6.03687C14.7341 5.49855 14.5371 4.77376 14.2049 4.0431C13.5457 2.59279 12.2883 1 9.99976 1C7.71118 1 6.45381 2.59279 5.79458 4.0431C5.46246 4.77376 5.26546 5.49855 5.15127 6.03687C5.09394 6.30713 5.05692 6.53312 5.03408 6.69296C5.02266 6.77294 5.01476 6.83654 5.00963 6.88103C5.00707 6.90329 5.0052 6.92078 5.00393 6.93317L5.00246 6.9479L5.00204 6.95232L5.0019 6.95378L5.00185 6.95432C5.00183 6.95454 5.00181 6.95473 5.49976 7ZM3.49976 9H3.04727L3.00224 9.45025L2.00224 19.4502L1.94727 20H2.49976H17.4998H18.0523L17.9973 19.4502L16.9973 9.45025L16.9523 9H16.4998H3.49976ZM3.05225 19L3.95225 10H16.0473L16.9473 19H3.05225Z" 
        fill="#212121" />
</svg>
