<svg width="20" 
    height="20" 
    viewBox="0 0 20 20" 
    fill="none" 
    xmlns="http://www.w3.org/2000/svg">
    <path fill-rule="evenodd" 
        clip-rule="evenodd" 
        d="M13.1 5C13.1 3.3 11.7 1.9 10 1.9C8.3 1.9 6.9 3.3 6.9 5C6.9 6.7 8.3 8.1 10 8.1C11.7 8.1 13.1 6.7 13.1 5ZM6 5C6 2.8 7.8 1 10 1C12.2 1 14 2.8 14 5C14 7.2 12.2 9 10 9C7.8 9 6 7.2 6 5ZM17 19C16.8 16.9 15.6 11.9 10 11.9C4.4 11.9 3.2 16.9 3 19H17ZM2 20C2 20 2 11 10 11C18 11 18 20 18 20H2Z" 
        fill="#212121" />
</svg>
