<svg width="151" height="200" viewBox="0 0 151 200" fill="none" xmlns="http://www.w3.org/2000/svg">
<path d="M149.792 61.9422C142.891 26.2452 111.889 0.010054 76.0677 0.010054C69.8236 -0.097467 63.5795 0.65518 57.5545 2.37552C32.6875 9.36438 15.2697 25.0625 5.95826 49.5772C0.700054 63.4475 -0.833587 77.7478 3.54825 92.2631C7.60146 105.273 13.8456 117.208 20.8565 128.713C35.9739 153.658 53.9394 176.345 73.11 198.171C75.3009 200.644 77.0537 200.644 79.3541 197.956C91.6233 183.979 103.345 169.463 114.299 154.303C125.802 138.282 136.428 121.831 144.424 103.66C150.23 90.3277 152.64 76.565 149.792 61.9422ZM74.8627 76.2425L94.8001 95.8113L74.8627 76.2425ZM79.9018 71.404L102.14 93.2308L79.9018 71.404Z" fill="#8E8C5C"/>
<path d="M109.37 45.384C109.15 45.384 108.931 45.384 108.603 45.384C107.179 45.384 105.755 44.954 104.769 43.8787C103.783 42.9111 103.125 41.5133 103.125 40.008V39.7929C103.125 25.1701 91.0754 13.3428 76.1771 13.3428C61.2789 13.3428 49.2288 25.1701 49.2288 39.7929C49.2288 40.1155 49.2288 40.4381 49.2288 40.8682C49.2288 40.9757 49.2288 40.9757 49.2288 41.0832C49.2288 42.481 48.6811 43.8787 47.5856 44.8464C46.5997 45.8141 45.1756 46.3517 43.7515 46.3517C43.642 46.3517 43.5324 46.3517 43.3133 46.3517C28.4151 46.3517 16.365 58.179 16.365 72.8019C16.365 87.4248 28.4151 99.2521 43.3133 99.2521C43.642 99.2521 43.9706 99.2521 44.4088 99.2521C45.8329 99.1446 47.257 99.6821 48.3524 100.757C49.3384 101.725 49.9956 103.123 49.9956 104.628V104.951C49.9956 119.574 62.0457 131.401 76.944 131.401C91.8422 131.401 103.892 119.574 103.892 104.951C103.892 104.628 103.892 104.306 103.892 103.875C103.892 103.768 103.892 103.768 103.892 103.66C103.892 102.263 104.44 100.972 105.426 99.8972C106.412 98.9295 107.726 98.3919 109.26 98.3919C124.158 98.3919 136.208 86.5646 136.208 71.9417C136.318 57.2114 124.158 45.384 109.37 45.384ZM109.26 94.8437C106.85 94.8437 104.659 95.7039 103.016 97.4242C101.373 99.037 100.387 101.295 100.387 103.553C100.387 103.66 100.387 103.768 100.387 103.875C100.387 104.198 100.387 104.521 100.387 104.736C100.387 117.423 89.8704 127.745 76.944 127.745C64.0175 127.745 53.5011 117.423 53.5011 104.736V104.413C53.5011 101.94 52.5152 99.6821 50.7624 98.0693C49.0097 96.4565 46.7092 95.5964 44.1897 95.5964C43.861 95.5964 43.5324 95.5964 43.3133 95.5964C30.3869 95.5964 19.8705 85.2743 19.8705 72.5869C19.8705 59.8994 30.3869 49.5774 43.3133 49.5774H43.642C46.052 49.5774 48.3524 48.7172 49.9956 47.1044C51.6388 45.4916 52.6247 43.2336 52.6247 40.8682C52.6247 40.7606 52.6247 40.6531 52.6247 40.5456C52.6247 40.223 52.6247 39.9005 52.6247 39.6854C52.6247 26.9979 63.1411 16.6759 76.0676 16.6759C88.994 16.6759 99.5104 26.9979 99.5104 39.6854V39.9005C99.5104 42.3734 100.496 44.5239 102.249 46.2442C104.002 47.857 106.302 48.7172 108.712 48.7172C108.931 48.7172 109.15 48.7172 109.37 48.7172C122.296 48.7172 132.812 59.0392 132.812 71.7267C132.703 84.5217 122.186 94.8437 109.26 94.8437Z" fill="#8E8C5C"/>
<path d="M109.369 48.8245C109.15 48.8245 108.931 48.8245 108.712 48.8245C106.302 48.932 104.002 48.0718 102.249 46.3515C100.496 44.7387 99.5103 42.4807 99.5103 40.0077V39.7927C99.5103 27.1052 88.9939 16.7832 76.0675 16.7832C63.1411 16.7832 52.6246 27.1052 52.6246 39.7927C52.6246 40.1153 52.6246 40.4378 52.6246 40.6529C52.6246 40.7604 52.6246 40.8679 52.6246 40.9754C52.6246 43.3409 51.6387 45.5988 49.9955 47.2117C48.2428 48.8245 46.0519 49.7922 43.6419 49.6846H43.3132C30.3868 49.6846 19.8704 60.0067 19.8704 72.6941C19.8704 85.3816 30.3868 95.7036 43.3132 95.7036C43.6419 95.7036 43.9705 95.7036 44.1896 95.7036C46.5996 95.5961 49.0096 96.4563 50.7623 98.1766C52.5151 99.7894 53.501 102.047 53.501 104.52V104.843C53.501 117.53 64.0174 127.852 76.9439 127.852C89.8703 127.852 100.387 117.53 100.387 104.843C100.387 104.52 100.387 104.198 100.387 103.983C100.387 103.875 100.387 103.768 100.387 103.66C100.387 101.295 101.263 99.1443 103.016 97.5315C104.659 95.9187 106.959 94.951 109.26 94.951C122.186 94.951 132.703 84.629 132.703 71.9415C132.703 59.1465 122.186 48.8245 109.369 48.8245ZM74.8625 76.2423L94.7999 95.8112L74.8625 76.2423ZM79.9016 71.4039L102.139 93.2306L79.9016 71.4039Z" fill="white"/>
<path d="M141.686 74.3073C141.686 73.3396 141.028 72.3719 140.152 72.0493C141.028 71.6192 141.686 70.7591 141.686 69.7914C141.686 68.6086 140.919 67.7485 139.823 67.4259C140.59 66.9958 141.138 66.2432 141.138 65.2755C141.138 63.8777 140.042 62.8025 138.618 62.8025C139.166 62.3724 139.604 61.6198 139.604 60.8671C139.604 59.4694 138.509 58.3942 137.085 58.3942H136.975C137.413 57.9641 137.632 57.3189 137.632 56.6738C137.632 55.276 136.537 54.2008 135.113 54.2008C134.894 54.2008 134.675 54.2008 134.456 54.3083C134.675 53.9858 134.784 53.5557 134.784 53.1256C134.784 51.7278 133.689 50.6526 132.265 50.6526C132.046 50.6526 131.827 50.6526 131.607 50.7602C131.717 50.5451 131.717 50.2225 131.717 50.0075C131.717 48.6097 130.622 47.5345 129.197 47.5345C128.65 47.5345 128.102 47.7496 127.773 47.9646C127.883 47.7496 127.883 47.5345 127.883 47.212C127.883 45.8142 126.787 44.739 125.363 44.739C124.706 44.739 124.158 44.954 123.72 45.3841C123.72 45.2766 123.72 45.1691 123.72 45.0615C123.72 43.6638 122.625 42.5886 121.201 42.5886C120.434 42.5886 119.667 42.9111 119.229 43.4487C119.119 42.1585 118.024 41.0833 116.709 41.0833C115.833 41.0833 115.066 41.5133 114.628 42.1585C114.299 41.0833 113.313 40.3306 112.218 40.3306C111.232 40.3306 110.246 40.9757 109.917 41.8359C109.698 40.6532 108.712 39.793 107.398 39.793C107.398 39.793 107.398 39.793 107.288 39.793C107.179 39.793 107.179 39.793 107.069 39.6855C107.945 39.2554 108.603 38.3952 108.603 37.4275C108.603 36.2448 107.836 35.3846 106.741 35.0621C107.398 34.632 107.836 33.8794 107.836 33.0192C107.836 31.7289 106.74 30.5462 105.426 30.5462C105.974 30.1161 106.302 29.3635 106.302 28.6108C106.302 27.2131 105.207 26.1378 103.783 26.1378C103.673 26.1378 103.564 26.1378 103.454 26.1378C103.783 25.7078 104.111 25.1702 104.111 24.525C104.111 23.1273 103.016 22.052 101.592 22.052C101.373 22.052 101.154 22.052 100.825 22.1596C101.154 21.7295 101.263 21.2994 101.263 20.7618C101.263 19.364 100.168 18.2888 98.7436 18.2888C98.415 18.2888 98.1959 18.3963 97.9768 18.3963C98.0864 18.1813 98.0864 17.9662 98.0864 17.7512C98.0864 16.3534 96.9909 15.2782 95.5668 15.2782C95.1286 15.2782 94.6904 15.3857 94.3618 15.6008C94.3618 15.3857 94.4713 15.1707 94.4713 14.9557C94.4713 13.5579 93.3759 12.4827 91.9518 12.4827C91.2945 12.4827 90.6372 12.6977 90.199 13.1278V13.0203C90.199 11.6225 89.1036 10.5473 87.6795 10.5473C86.8031 10.5473 86.1458 10.9774 85.7077 11.515C85.7077 10.1172 84.5026 9.042 83.1881 9.042C82.2022 9.042 81.4354 9.57961 80.9972 10.3323C80.6685 9.25704 79.6826 8.50439 78.5872 8.50439C77.6012 8.50439 76.6153 9.14952 76.2867 10.0097C75.8485 9.14952 74.9721 8.50439 73.9862 8.50439C72.7812 8.50439 71.7953 9.36456 71.4667 10.4398C71.0285 9.68713 70.2617 9.25704 69.2757 9.25704C67.9612 9.25704 66.8657 10.2247 66.7562 11.515C66.318 11.0849 65.6607 10.7623 64.8939 10.7623C63.4698 10.7623 62.3743 11.8375 62.3743 13.2353V13.3428C61.9362 13.0203 61.3884 12.8052 60.8407 12.8052C59.4166 12.8052 58.3211 13.8804 58.3211 15.2782C58.3211 15.4933 58.3211 15.7083 58.4307 15.9233C57.9925 15.7083 57.5543 15.6008 57.1161 15.6008C55.692 15.6008 54.5966 16.676 54.5966 18.0738C54.5966 18.3963 54.7061 18.7189 54.8157 19.0415C54.487 18.9339 54.2679 18.8264 53.9393 18.8264C52.5152 18.8264 51.4197 19.9016 51.4197 21.2994C51.4197 21.7295 51.5293 22.1596 51.7484 22.5896C51.5293 22.5896 51.3102 22.4821 51.2006 22.4821C49.7765 22.4821 48.6811 23.5573 48.6811 24.9551C48.6811 25.4927 48.9002 26.0303 49.2288 26.4604H49.1193C47.6952 26.4604 46.5997 27.5356 46.5997 28.9334C46.5997 29.686 46.9283 30.3312 47.4761 30.8688C46.1615 30.9763 45.0661 32.0515 45.0661 33.3418C45.0661 34.2019 45.6138 35.0621 46.2711 35.4922C45.1756 35.7072 44.2992 36.7824 44.2992 37.9652C44.2992 38.7178 44.6279 39.3629 45.1756 39.793C44.847 39.793 44.5183 39.9005 44.1897 40.1156C43.3133 40.4381 42.6561 41.1908 42.5465 42.1585C42.1083 41.7284 41.5606 41.5133 40.9033 41.5133C39.6983 41.5133 38.7124 42.3735 38.3838 43.4487C37.9456 42.6961 37.1788 42.266 36.1928 42.266C34.8783 42.266 33.7828 43.3412 33.6733 44.6315C33.2351 44.0939 32.4683 43.7713 31.7014 43.7713C30.2773 43.7713 29.1819 44.8465 29.1819 46.2443V46.3518C28.7437 46.0292 28.196 45.8142 27.6482 45.8142C26.2241 45.8142 25.1287 46.8894 25.1287 48.2872C25.1287 48.5022 25.1287 48.7173 25.2382 48.8248C24.9096 48.6097 24.3619 48.5022 23.9237 48.5022C22.4996 48.5022 21.4041 49.5774 21.4041 50.9752C21.4041 51.2978 21.5137 51.6203 21.6232 51.8354C21.2946 51.7278 20.9659 51.6203 20.6373 51.6203C19.2132 51.6203 18.1177 52.6955 18.1177 54.0933C18.1177 54.5234 18.2273 54.9535 18.4464 55.3836C18.2273 55.3836 18.0082 55.276 17.7891 55.276C16.365 55.276 15.2695 56.3513 15.2695 57.749C15.2695 58.2866 15.4886 58.8242 15.8173 59.2543H15.7077C14.2836 59.2543 13.1882 60.3295 13.1882 61.7273C13.1882 62.4799 13.5168 63.1251 13.955 63.5552C12.75 63.6627 11.6545 64.7379 11.6545 66.0281C11.6545 66.8883 12.2023 67.7485 12.8595 68.1786C11.7641 68.3936 10.8877 69.4688 10.8877 70.6515C10.8877 71.6192 11.545 72.5869 12.4213 72.9095C11.545 73.3396 10.8877 74.1997 10.8877 75.1674C10.8877 76.3502 11.6545 77.2103 12.75 77.5329C11.9832 77.963 11.4354 78.7156 11.4354 79.6833C11.4354 81.0811 12.5309 82.1563 13.955 82.1563C13.4073 82.5864 12.9691 83.339 12.9691 84.0917C12.9691 85.4894 14.0645 86.5647 15.4886 86.5647H15.5982C15.16 86.9947 14.9409 87.6399 14.9409 88.285C14.9409 89.6828 16.0364 90.758 17.4605 90.758C17.6796 90.758 17.8986 90.758 18.1177 90.6505C17.8986 90.973 17.7891 91.4031 17.7891 91.8332C17.7891 93.231 18.8846 94.3062 20.3087 94.3062C20.5278 94.3062 20.7468 94.3062 20.9659 94.1986C20.8564 94.4137 20.8564 94.7363 20.8564 94.9513C20.8564 96.3491 21.9518 97.4243 23.3759 97.4243C23.9237 97.4243 24.4714 97.2092 24.8 96.9942C24.6905 97.2092 24.6905 97.4243 24.6905 97.7468C24.6905 99.1446 25.786 100.22 27.2101 100.22C27.8673 100.22 28.4151 100.005 28.8532 99.5747C28.8532 99.6822 28.8532 99.7897 28.8532 99.8973C28.8532 101.295 29.9487 102.37 31.3728 102.37C32.1396 102.37 32.9065 102.048 33.3446 101.51C33.4542 102.8 34.5496 103.876 35.8642 103.876C36.7406 103.876 37.5074 103.445 37.9456 102.8C38.2742 103.876 39.2601 104.628 40.3556 104.628C41.3415 104.628 42.3274 103.983 42.6561 103.123C42.8751 104.306 43.8611 105.166 45.1756 105.166C45.3947 105.166 45.6138 105.166 45.7233 105.058C45.7233 105.058 45.7233 105.058 45.8329 105.058C45.9424 105.058 46.052 105.058 46.2711 105.058C45.6138 105.488 45.1756 106.241 45.1756 107.101C45.1756 108.284 46.052 109.252 47.1474 109.574C46.3806 110.004 45.9424 110.757 45.9424 111.725C45.9424 113.015 47.0379 114.09 48.3525 114.198C47.8047 114.628 47.4761 115.38 47.4761 116.133C47.4761 117.531 48.5715 118.606 49.9956 118.606H50.1052C49.7765 119.036 49.5575 119.574 49.5575 120.111C49.5575 121.509 50.6529 122.584 52.077 122.584C52.2961 122.584 52.5152 122.584 52.6247 122.477C52.4056 122.799 52.2961 123.337 52.2961 123.767C52.2961 125.165 53.3916 126.24 54.8157 126.24C55.1443 126.24 55.4729 126.132 55.692 126.025C55.5825 126.347 55.4729 126.67 55.4729 126.993C55.4729 128.39 56.5684 129.466 57.9925 129.466C58.4307 129.466 58.8689 129.358 59.3071 129.143C59.3071 129.358 59.1975 129.573 59.1975 129.788C59.1975 131.186 60.293 132.261 61.7171 132.261C62.2648 132.261 62.8125 132.046 63.2507 131.723V131.831C63.2507 133.229 64.3462 134.304 65.7703 134.304C66.5371 134.304 67.1944 133.981 67.6326 133.551C67.7421 134.734 68.8376 135.809 70.1521 135.809C71.0285 135.809 71.9048 135.272 72.343 134.627C72.5621 135.702 73.548 136.562 74.753 136.562C75.739 136.562 76.7249 135.917 77.0535 135.057C77.4917 135.917 78.3681 136.562 79.354 136.562C80.559 136.562 81.4354 135.809 81.764 134.734C82.2022 135.487 82.969 136.024 83.9549 136.024C85.379 136.024 86.4745 134.949 86.4745 133.551C86.9127 134.089 87.6795 134.519 88.4463 134.519C89.8704 134.519 90.9659 133.444 90.9659 132.046V131.939C91.404 132.369 92.0613 132.584 92.7186 132.584C94.1427 132.584 95.2382 131.508 95.2382 130.111C95.2382 129.896 95.2382 129.681 95.1286 129.466C95.4573 129.681 95.8954 129.788 96.3336 129.788C97.7577 129.788 98.8532 128.713 98.8532 127.315C98.8532 127.1 98.8532 126.885 98.7436 126.67C98.9627 126.778 99.2914 126.778 99.5105 126.778C100.935 126.778 102.03 125.702 102.03 124.305C102.03 123.767 101.811 123.229 101.592 122.907C101.811 123.014 102.03 123.014 102.359 123.014C103.783 123.014 104.878 121.939 104.878 120.541C104.878 119.896 104.659 119.359 104.221 118.928C104.33 118.928 104.44 118.928 104.55 118.928C105.974 118.928 107.069 117.853 107.069 116.456C107.069 115.703 106.74 114.95 106.193 114.52C107.507 114.413 108.603 113.337 108.603 112.047C108.603 111.187 108.165 110.434 107.507 110.004C108.603 109.682 109.37 108.714 109.37 107.639C109.37 106.671 108.712 105.703 107.836 105.381C109.041 105.166 109.808 104.198 109.917 103.015C110.356 103.445 111.013 103.66 111.67 103.66C112.875 103.66 113.861 102.8 114.19 101.725C114.628 102.478 115.395 102.908 116.381 102.908C117.695 102.908 118.791 101.833 118.9 100.542C119.338 101.08 120.105 101.403 120.872 101.403C122.296 101.403 123.391 100.327 123.391 98.9296V98.8221C123.83 99.1446 124.377 99.3597 124.925 99.3597C126.349 99.3597 127.445 98.2844 127.445 96.8867C127.445 96.6716 127.445 96.4566 127.335 96.3491C127.664 96.5641 128.212 96.6716 128.65 96.6716C130.074 96.6716 131.169 95.5964 131.169 94.1986C131.169 93.8761 131.06 93.5535 130.95 93.3385C131.279 93.446 131.607 93.5535 131.936 93.5535C133.36 93.5535 134.456 92.4783 134.456 91.0805C134.456 90.6504 134.346 90.2204 134.127 89.7903C134.346 89.7903 134.565 89.8978 134.784 89.8978C136.208 89.8978 137.304 88.8226 137.304 87.4248C137.304 86.8872 137.085 86.3496 136.756 85.9195H136.866C138.29 85.9195 139.385 84.8443 139.385 83.4465C139.385 82.6939 139.057 82.0488 138.618 81.6187C139.823 81.5112 140.919 80.436 140.919 79.1457C140.919 78.2855 140.371 77.4254 139.714 76.9953C140.809 76.4577 141.686 75.49 141.686 74.3073ZM109.26 98.2844C107.836 98.2844 106.412 98.8221 105.426 99.7897C104.44 100.757 103.892 102.048 103.892 103.553C103.892 103.661 103.892 103.66 103.892 103.768C103.892 104.091 103.892 104.413 103.892 104.843C103.892 119.466 91.8422 131.293 76.944 131.293C62.0457 131.293 49.9956 119.466 49.9956 104.843V104.521C49.9956 103.015 49.4479 101.618 48.3525 100.65C47.257 99.6822 45.8329 99.1446 44.4088 99.1446C44.0801 99.1446 43.7515 99.1446 43.3133 99.1446C28.4151 99.1446 16.365 87.3173 16.365 72.6944C16.365 58.0716 28.5246 46.2443 43.4229 46.2443C43.5324 46.2443 43.642 46.2443 43.8611 46.2443C45.2852 46.2443 46.7093 45.7067 47.6952 44.739C48.6811 43.7713 49.3384 42.3735 49.3384 40.9757C49.3384 40.8682 49.3384 40.8682 49.3384 40.7607C49.3384 40.4381 49.3384 40.1156 49.3384 39.6855C49.3384 25.0626 61.3884 13.2353 76.2867 13.2353C91.185 13.2353 103.235 25.0626 103.235 39.6855V39.9005C103.235 41.4058 103.783 42.8036 104.878 43.7713C105.864 44.739 107.288 45.2766 108.712 45.2766C108.931 45.2766 109.26 45.2766 109.479 45.2766C124.377 45.2766 136.427 57.1039 136.427 71.7268C136.208 86.3496 124.158 98.2844 109.26 98.2844Z" fill="white"/>
<path d="M72.4527 53.1255C72.3431 51.5127 72.7813 49.8999 73.5482 48.3946C73.7672 48.072 73.8768 47.9645 74.0959 48.287C74.2054 48.3946 74.315 48.5021 74.4245 48.6096C75.1913 49.3623 75.1913 49.3623 74.8627 50.2224C74.315 51.5127 74.315 52.9105 74.4245 54.3082C74.4245 54.7383 74.315 54.8458 73.8768 54.8458C72.4527 54.8458 72.4527 54.8458 72.4527 53.4481C72.4527 53.4481 72.4527 53.3405 72.4527 53.1255Z" fill="#8E8C5C"/>
<path d="M62.4839 56.2436C62.5934 54.7383 62.3743 53.3405 62.5934 51.8352C63.0316 48.5021 65.8798 45.7065 69.2757 45.1689C73.3289 44.6313 77.2726 47.2118 78.149 51.2976C78.2585 51.8352 78.368 52.4804 78.368 53.1255C78.368 54.3082 78.368 55.3834 78.368 56.5661H80.4494C80.3399 56.4586 80.3399 56.3511 80.3399 56.1361C80.3399 54.6308 80.4494 53.233 80.2303 51.7277C80.0112 49.7923 79.2444 47.9645 77.9299 46.4592C79.354 45.2764 81.9831 44.7388 83.9549 45.2764C87.8986 46.1366 90.3086 49.2547 90.3086 53.3405C90.3086 54.9533 90.3086 54.9533 91.9518 54.8458H92.0613C92.2804 54.8458 92.2804 54.7383 92.2804 54.5233C92.2804 53.6631 92.3899 52.8029 92.2804 51.9427C91.5136 44.6313 83.0785 40.7606 76.9439 44.8464C76.6153 45.0614 76.3962 45.0614 76.0676 44.8464C73.8767 43.4486 71.5762 42.911 69.0566 43.2335C64.2366 43.9862 60.7311 47.9645 60.6216 52.6954C60.6216 53.9856 60.6216 55.2759 60.6216 56.4586H62.5934C62.4839 56.5662 62.4839 56.3511 62.4839 56.2436Z" fill="#8E8C5C"/>
<path d="M98.1959 58.0716C98.1959 57.319 97.5386 56.6738 96.7718 56.6738H91.2945C90.7468 56.6738 90.3086 57.1039 90.3086 57.6415V81.7262L98.1959 89.4677V58.0716Z" fill="#8E8C5C"/>
<path d="M90.3086 81.7258V91.4027L94.8 95.8111L90.3086 91.4027V100.434C90.3086 100.972 90.7468 101.402 91.2945 101.402H96.7718C97.5386 101.402 98.1959 100.757 98.1959 100.004V89.4673L90.3086 81.7258Z" fill="#8E8C5C"/>
<path d="M90.1992 92.8008C90.1992 93.0158 89.8706 93.1233 89.9802 93.4459C89.542 93.876 89.4324 94.5211 89.4324 94.9512C89.2133 95.1662 89.3229 95.2738 89.2133 95.4888C88.9942 95.7038 88.7751 96.1339 88.5561 96.349C88.5561 96.4565 88.5561 96.564 88.4465 96.564C88.2274 96.564 88.0083 96.4565 87.8988 96.6715C87.6797 96.564 87.6797 96.2415 87.6797 96.0264C87.7892 95.5963 87.8988 95.2738 88.2274 95.0587C88.337 94.7362 88.2274 94.5211 88.4465 94.1985C89.1038 93.4459 88.9942 92.1556 89.6515 91.403C89.6515 91.188 89.6515 91.0804 89.7611 90.9729L88.6656 89.8977C88.5561 90.2203 88.5561 90.4353 88.4465 90.7579C88.4465 91.2955 87.7892 91.618 87.8988 92.1556C87.8988 92.2632 87.7892 92.4782 87.6797 92.5857C87.7892 92.9083 87.4606 93.0158 87.4606 93.2309C87.4606 93.876 86.9129 94.091 86.9129 94.7362C86.8033 94.9512 86.6938 95.1662 86.5842 95.4888C86.8033 95.9189 86.0365 96.0264 86.2556 96.4565C85.8174 96.564 86.2556 96.9941 85.9269 97.1016C85.9269 97.5317 85.8174 98.0693 86.146 98.2843C86.2556 98.822 86.8033 98.7144 87.2415 98.822C87.5701 98.822 87.8988 99.037 88.1179 98.822C88.5561 98.9295 88.6656 98.3919 88.9942 98.6069C89.4324 98.4994 89.4324 97.9618 89.542 97.6392V96.8866C89.6515 96.7791 89.4324 96.6715 89.6515 96.6715C89.6515 96.1339 89.9802 95.9189 89.9802 95.3813C90.4183 95.0587 90.1992 94.6286 90.6374 94.1985C90.5279 93.9835 90.747 93.7685 90.8565 93.6609C91.4043 93.5534 91.2947 93.3384 91.6233 93.1233L90.4183 91.9406C90.9661 92.2632 90.1992 92.4782 90.1992 92.8008Z" fill="white"/>
<path d="M102.578 96.9941C102.468 96.8866 102.359 96.6716 102.359 96.564C102.249 96.4565 102.249 96.349 102.03 96.1339C102.03 95.7039 101.482 95.4888 101.373 95.1663C101.154 95.0587 101.482 94.9512 101.263 94.9512C101.263 94.5211 100.825 94.1986 100.825 93.7685C100.606 93.7685 100.825 93.5534 100.606 93.3384C100.825 92.4782 99.9486 92.1557 99.8391 91.2955C99.5104 91.0805 99.4009 90.7579 99.2913 90.4353L97.1004 88.2849C97.1004 88.5 97.3195 88.6075 97.21 88.8225C97.5386 89.3601 97.7577 90.0052 98.0863 90.4353V90.5429H97.9768C97.9768 90.7579 98.3054 90.7579 98.3054 91.0805C98.1959 91.403 98.7436 91.6181 98.5245 91.9406V92.0481C98.9627 92.2632 98.8532 92.6933 99.1818 93.0158C99.1818 93.661 99.9486 93.9835 99.9486 94.6287C100.277 95.1663 100.387 95.5963 100.496 96.1339C100.387 96.4565 100.058 96.564 99.7295 96.4565C99.0722 96.2415 99.2913 95.5963 98.8532 95.2738C98.8532 94.8437 98.1959 94.8437 98.415 94.4136C98.0863 93.876 97.9768 93.5534 97.7577 92.9083C97.9768 92.4782 97.3195 92.3707 97.4291 92.0481C97.21 91.8331 97.21 91.7256 96.8813 91.5105C96.2241 91.6181 95.5668 91.6181 94.8 91.7256C94.4713 91.8331 94.0331 91.403 93.814 91.7256C93.4854 91.5105 93.0472 91.8331 92.609 91.7256C92.3899 91.5105 91.7327 91.5105 91.2945 91.403C91.0754 91.6181 90.8563 91.188 90.6372 91.403L91.8422 92.5858C92.0613 92.4782 92.2804 92.4782 92.7186 92.5858C92.8281 92.5858 92.9377 92.5858 93.1568 92.5858C93.2663 92.8008 93.9236 92.5858 94.0331 92.8008C94.2522 92.8008 94.4713 92.9083 94.5809 92.6933C94.8 92.6933 94.9095 92.6933 95.1286 92.8008C95.5668 92.9083 96.005 92.5858 96.4431 92.9083C96.7718 93.4459 97.4291 93.661 97.5386 94.4136C97.5386 94.8437 97.8672 95.1663 97.8672 95.5963C98.1959 96.0264 98.0863 96.564 98.5245 96.8866C98.415 97.1016 98.7436 97.1016 98.7436 97.3167C99.0723 98.6069 100.496 97.9618 101.482 98.2844C101.811 98.3919 101.811 98.2844 102.03 98.1769C102.687 98.0693 102.468 97.4242 102.578 96.9941Z" fill="white"/>
<path d="M90.9661 83.6614C90.8565 83.769 90.747 83.984 90.747 84.0915V84.5216C90.3088 84.6291 90.747 84.9517 90.5279 85.0592C90.5279 85.5968 90.0897 86.0269 90.0897 86.5645C90.1993 86.5645 89.6515 87.3171 89.6515 87.3171C89.6515 87.7472 89.2133 87.9623 89.2133 88.3924C88.9942 88.6074 88.8847 89.0375 88.9942 89.3601C88.8847 89.4676 88.8847 89.6826 88.7751 89.7901L89.8706 90.8653C89.8706 90.7578 89.8706 90.7578 89.8706 90.6503C90.1992 90.2202 90.4183 89.5751 90.3088 89.0375C90.5279 88.8225 90.747 88.6074 90.747 88.2848L90.8565 88.1773C90.8565 87.9623 91.0756 87.7472 91.0756 87.5322C90.9661 86.3495 91.8424 85.8119 92.0615 84.7367C92.3902 84.5216 92.3902 84.0915 92.4997 83.769L91.5138 82.8013C91.1852 83.0163 91.1852 83.4464 90.9661 83.6614Z" fill="white"/>
<path d="M99.0725 89.6828C98.8534 89.4677 98.8534 89.0376 98.5248 88.9301C98.3057 88.3925 98.1962 87.9624 98.0866 87.4248C97.758 86.7797 97.4293 86.3496 97.1007 85.7045C97.1007 85.597 97.1007 85.4895 96.9911 85.3819C96.9911 85.1669 96.9911 84.9519 96.7721 84.8443C96.7721 84.4142 96.6625 84.0917 96.4434 83.8766C96.553 83.339 95.8957 83.4466 95.8957 83.0165C95.4575 82.9089 95.6766 82.3713 95.348 82.2638C94.9098 82.2638 94.5811 82.1563 94.2525 81.8337H93.0475C92.4998 81.8337 92.0616 82.0488 91.7329 82.5864C91.7329 82.6939 91.6234 82.8014 91.5138 82.8014C91.5138 82.8014 91.5138 82.8014 91.4043 82.909L92.3902 83.8766C92.3902 83.6616 92.4998 83.5541 92.7189 83.4466C93.3761 83.6616 94.2525 82.5864 94.5811 83.6616C94.362 84.1992 95.0193 84.1992 94.9098 84.6293C95.1289 84.8443 95.5671 85.1669 95.4575 85.4895C95.6766 85.7045 95.567 86.0271 95.8957 86.1346C96.0052 86.3496 96.3339 86.5647 96.3339 86.8872C96.9911 87.2098 96.553 87.9624 97.1007 88.3925V88.5L99.2916 90.6505C99.1821 90.2204 99.1821 89.8978 99.0725 89.6828Z" fill="white"/>
<path d="M94.3619 85.3818C94.2524 85.3818 94.0333 85.1667 93.8142 85.1667L94.4715 85.8119C94.4715 85.7044 94.3619 85.5968 94.3619 85.3818Z" fill="white"/>
<path d="M95.6764 88.715C95.8955 88.4999 95.5668 88.2849 95.4573 88.1774C95.5668 87.8548 95.1286 87.7473 95.1286 87.4247C94.9095 86.9946 94.9095 86.457 94.5809 86.242C94.5809 86.0269 94.4714 85.9194 94.4714 85.8119L93.8141 85.1668H93.7045C93.2664 84.9517 93.3759 85.5969 93.0473 85.4893L92.9377 85.5968C92.6091 85.9194 92.4995 86.3495 92.4995 86.7796C91.9518 86.7796 92.39 87.4247 91.9518 87.5322C91.9518 87.7473 91.7327 87.9623 91.8423 88.1774C91.4041 88.3924 91.8423 88.93 91.4041 89.145C91.4041 89.3601 91.5136 89.3601 91.6232 89.3601C91.4041 89.4676 91.4041 89.5751 91.2945 89.7902C91.4041 90.1127 91.0754 90.3278 91.0754 90.6503C91.185 90.8654 91.6232 90.8654 91.8423 90.8654C92.2804 91.0804 92.9377 90.9729 93.2664 90.8654C93.4855 90.8654 93.7045 90.9729 93.7045 90.7579H93.8141C93.8141 90.8654 94.0332 90.7579 93.9236 90.7579C93.9236 90.7579 94.2523 90.9729 94.6905 90.8654C95.2382 90.7579 95.8955 90.9729 96.5527 90.6503C96.7718 90.3278 96.3336 90.0052 96.4432 89.6827C96.005 89.4676 96.2241 89.0375 95.6764 88.715ZM94.8 90.0052C94.5809 89.8977 94.5809 90.2203 94.2523 90.2203C93.9236 90.2203 93.595 90.4353 93.2664 90.1127C93.0473 90.1127 92.9377 90.1127 92.8282 90.0052C92.9377 89.7902 92.6091 89.5751 92.4995 89.4676C92.9377 89.145 92.8282 88.6074 93.2664 88.2849C93.2664 87.8548 93.2664 87.4247 93.595 87.2097C93.8141 87.2097 93.8141 87.1021 94.0332 87.2097C94.3618 87.4247 94.3618 87.9623 94.6905 88.1774C94.8 88.4999 94.9095 88.715 95.0191 89.145C95.1286 89.3601 94.9095 89.6826 94.8 90.0052Z" fill="white"/>
<path d="M79.9018 71.4041L88.4464 79.7907V57.3188C88.4464 56.8887 88.1178 56.5662 87.6796 56.5662H56.0208C55.254 56.5662 54.5967 57.2113 54.5967 57.9639V99.8971C54.5967 100.65 55.254 101.295 56.0208 101.295H87.6796C88.1178 101.295 88.4464 100.972 88.4464 100.542V89.4676L74.8627 76.2425L88.3369 89.4676V79.7907L79.9018 71.4041Z" fill="#8E8C5C"/>
<path d="M72.8908 81.9411C72.343 81.511 71.7953 81.726 71.138 81.8336C70.8094 82.2636 70.3712 82.0486 70.1521 82.5862C69.933 83.1238 69.3853 83.4464 69.3853 84.0915C68.9471 84.5216 68.8376 85.2742 68.728 85.8118C68.5089 86.0269 68.3994 86.3494 68.2898 86.672C67.8517 86.887 68.0708 87.3171 67.7421 87.6397C67.523 88.0698 67.3039 88.6074 66.9753 89.0375C67.1944 89.6826 66.4276 89.8976 66.7562 90.4352C66.5371 90.6503 66.6467 91.1879 66.4276 91.4029C66.2085 91.833 65.9894 92.2631 65.6607 92.6932C65.3321 92.6932 65.0035 92.8007 64.8939 92.4781C64.7844 91.9405 64.1271 91.5104 64.2366 90.9728C63.908 90.7578 64.1271 90.2202 63.7985 89.8976C63.6889 89.6826 63.5794 89.2525 63.4698 89.0375C63.6889 88.7149 63.0316 88.6074 63.2507 88.3923C63.0316 88.1773 63.0316 87.9623 62.9221 87.6397C62.9221 87.2096 62.2648 86.9946 62.3744 86.457C62.1553 86.2419 62.1553 86.0269 62.1553 85.8118C61.6075 85.2742 61.7171 84.4141 61.1694 83.8765L61.0598 83.7689C61.1694 83.5539 60.8407 83.3388 60.8407 83.0163C60.4025 82.5862 60.4025 82.1561 59.7453 81.8336C59.7453 81.4035 59.4166 81.726 59.1975 81.4035C58.9784 81.511 58.9784 81.1884 58.7593 81.296C58.3212 81.511 57.5543 81.511 57.3352 82.1561C57.1162 82.4787 57.2257 82.9088 57.4448 83.2313C57.4448 83.4464 57.5543 83.8765 57.6639 84.0915C58.2116 84.0915 57.7734 84.7366 58.2116 84.8441C58.4307 85.1667 58.2116 85.5968 58.6498 85.8118C58.4307 86.457 59.088 86.7795 59.088 87.3171C59.1975 87.5322 59.4166 87.7472 59.4166 88.0698C59.6357 88.4999 59.9644 88.9299 59.9644 89.36C60.4025 89.7901 60.4025 90.2202 60.7312 90.6503C60.9503 91.0804 60.8407 91.833 61.3884 92.1556C61.1694 92.5857 61.7171 92.9082 61.9362 93.3383C61.8266 93.4458 62.0457 93.5533 62.0457 93.6609C62.1553 93.9834 62.3744 94.4135 62.4839 94.7361C62.4839 95.1662 62.9221 95.3812 62.9221 95.7038C62.9221 96.2414 63.5794 96.6715 63.4698 97.3166C63.908 97.8542 64.4557 98.0692 65.0035 98.2843C65.6607 98.2843 66.5371 98.4993 66.7562 97.7467C67.4135 97.5316 67.1944 96.779 67.6326 96.3489C67.7421 96.2414 67.6326 95.9188 67.7421 95.9188C67.8517 95.8113 67.7421 95.4887 67.9612 95.2737C68.1803 94.8436 68.0708 94.1985 68.5089 93.8759C68.2898 93.4458 68.8376 93.3383 68.728 93.0157C69.2758 92.8007 68.8376 92.0481 69.3853 91.7255C69.3853 91.4029 69.8235 91.2954 69.714 90.8653C69.6044 90.6503 69.933 90.4352 69.933 90.1127C69.933 89.6826 70.3712 89.5751 70.4808 89.145C70.4808 88.9299 70.2617 88.9299 70.3712 88.7149C70.8094 88.4999 70.8094 88.0698 70.919 87.7472C70.919 87.7472 71.0285 87.5322 71.138 87.6397V87.4247C71.7953 87.1021 71.5762 86.457 71.7953 85.9194C72.0144 85.4893 72.2335 85.0592 72.4526 84.6291C72.4526 84.4141 72.6717 84.0915 72.8908 83.984C72.8908 83.7689 73.0003 83.5539 73.1099 83.3389C73.1099 82.8012 73.329 82.2636 72.8908 81.9411ZM70.3712 89.0375C70.3712 89.0375 70.1521 88.8224 70.3712 88.8224V89.0375ZM70.6999 85.4893C70.6999 85.3818 70.5903 85.3818 70.6999 85.4893C70.6999 86.0269 70.3712 86.5645 70.1521 87.1021C69.7139 87.6397 69.6044 88.3923 69.6044 89.0375C69.3853 89.6826 68.8376 90.2202 68.5089 90.6503C68.2898 91.1879 68.3994 91.7255 68.0708 92.1556C67.8517 92.3706 67.8517 92.8007 67.7421 93.1233C67.9612 93.5533 67.3039 93.5534 67.523 93.8759C67.3039 93.8759 67.0848 94.091 66.9753 94.306C66.9753 94.6286 66.6467 94.7361 66.7562 95.0586C66.6467 95.7038 66.4276 96.2414 65.8798 96.6715C65.2226 96.6715 64.4557 96.779 64.1271 96.0263C64.0175 95.8113 64.0176 95.3812 63.6889 95.1662C63.5794 94.4135 63.0316 93.7684 63.0316 93.0157C62.9221 92.5857 62.4839 92.3706 62.5935 91.833C62.2648 91.4029 62.1553 90.8653 61.7171 90.4352C61.498 89.8976 61.1694 89.36 61.0598 88.7149C61.0598 88.3923 60.8407 88.0698 60.7312 87.7472C60.5121 87.4246 60.5121 86.9946 60.293 86.5645C59.9643 86.3494 60.4025 85.9194 59.8548 85.7043C59.7453 85.3817 59.7453 84.8441 59.4166 84.5216C59.3071 84.3065 59.1975 83.984 59.088 83.6614C59.5262 83.2313 59.7453 83.7689 59.9644 84.0915C59.9644 84.5216 60.6216 84.7366 60.293 85.2742C60.6216 85.3818 60.293 85.4893 60.293 85.8118C60.8407 85.9194 60.5121 86.457 60.8407 86.7795C61.1694 87.1021 61.1694 87.4246 61.3884 87.8547C61.498 88.3923 61.7171 88.8224 62.0457 89.2525C62.0457 89.6826 62.703 89.8976 62.4839 90.4352C62.5935 90.7578 62.5935 91.0804 62.9221 91.4029C62.9221 91.7255 63.2507 91.9405 63.3603 92.2631C63.2507 92.9082 64.0176 92.9082 63.7985 93.5533C64.3462 93.7684 64.0176 94.306 64.4557 94.521C64.3462 94.8436 64.7844 94.9511 65.0035 95.1662C65.3321 95.1662 65.6607 94.9511 65.7703 94.6286C65.7703 94.091 66.6467 93.9834 66.4276 93.3383C66.8658 93.1233 66.4276 92.2631 66.9753 91.9405C67.1944 91.618 67.1944 91.2954 67.4135 90.9728C67.3039 90.7578 67.6326 90.7578 67.7421 90.4352C67.7421 90.0052 68.1803 89.7901 68.0708 89.4675C68.1803 88.7149 68.9471 88.1773 69.1662 87.4247C69.1662 87.2096 69.2758 86.887 69.1662 86.5645C69.3853 86.3494 69.3853 85.9194 69.6044 85.5968C69.933 85.3817 69.8235 84.8441 70.0426 84.6291C70.3712 84.5216 70.2617 83.984 70.6999 84.199C70.6999 84.4141 70.6999 84.7366 70.919 84.9517C70.919 84.9517 71.0285 85.3818 70.6999 85.4893Z" fill="white"/>
<path d="M77.8204 87.532C77.93 87.1019 78.2586 86.5643 78.6968 86.3492C79.2445 86.3492 79.4636 85.4891 80.1209 85.7041C80.5591 85.4891 81.3259 85.7041 81.6545 85.9192C81.9832 85.8116 82.0927 86.2417 82.3118 86.3492C82.6404 86.8868 83.1882 87.532 83.8454 87.4244C84.0645 87.2094 84.2836 87.2094 84.3932 87.1019C84.8314 87.1019 84.8314 86.6718 85.0505 86.4568L80.2304 81.7258C80.1209 81.7258 79.9018 81.7258 79.7922 81.8333C79.2445 81.7258 78.8063 81.9409 78.4777 82.2634C78.1491 82.1559 78.0395 82.4785 77.8204 82.6935C77.3822 82.801 77.0536 83.1236 76.6154 83.1236C76.1772 83.7687 75.5199 84.1988 75.5199 84.9515C75.0818 85.1665 75.3009 85.7041 75.0818 86.0267C74.7531 86.5643 74.6436 87.1019 74.534 87.6395C74.534 87.8545 74.534 88.2846 74.3149 88.4997C74.3149 88.9297 74.534 89.5749 74.3149 90.0049C74.534 91.1877 74.0959 92.4779 74.7531 93.4456C74.7531 93.6607 74.7531 93.8757 74.9722 93.9832C74.9722 94.6284 75.1913 95.2735 75.8486 95.7036C75.8486 96.1336 76.3963 96.1337 76.2868 96.5637C76.2868 96.5637 76.3963 96.7788 76.5059 96.7788C76.5059 96.8863 76.725 96.8863 76.725 96.9938C76.725 97.2089 76.944 97.1013 77.0536 97.1013C77.2727 97.3164 77.4918 97.3164 77.7109 97.5314C78.1491 97.5314 78.3681 97.7465 78.8063 97.854C79.0254 98.069 79.3541 97.854 79.5732 98.1766C79.9018 98.069 80.34 98.3916 80.7782 98.1766C80.9973 97.6389 81.7641 97.9615 82.0927 97.854C82.3118 97.6389 82.5309 97.854 82.75 97.5314C83.0786 97.3164 83.4073 96.9938 83.8454 96.8863C84.3932 96.6713 84.5027 96.1336 84.8314 95.8111C85.2695 95.381 84.8314 94.7359 84.9409 94.0907C84.7218 93.8757 84.9409 93.3381 84.6123 93.1231C84.5027 93.0155 84.3932 92.8005 84.1741 92.908C83.7359 92.693 83.1882 92.908 82.6404 92.908C82.3118 93.1231 82.3118 93.4456 82.2023 93.7682C82.0927 93.9832 81.8736 93.9832 81.8736 94.1983C81.545 94.8434 80.7782 94.8434 80.1209 94.8434C79.9018 94.7359 79.7922 95.0584 79.6827 94.8434H79.3541C78.9159 94.7359 78.4777 94.5208 78.3681 94.0907C78.0395 93.8757 78.2586 93.4456 77.8204 93.2306C77.93 93.0155 77.7109 93.0155 77.6013 92.8005C77.6013 92.1554 77.1631 91.2952 77.3822 90.6501C77.1631 90.3275 77.4918 90.1125 77.2727 89.7899C77.3822 89.2523 77.1631 88.6072 77.3822 88.0696C77.8204 87.8545 77.6013 87.532 77.8204 87.532ZM77.3822 86.0267C77.1631 86.4568 76.725 86.7793 76.8345 87.3169C76.8345 87.4244 76.8345 87.532 76.6154 87.532C76.6154 88.6072 76.2868 89.6824 76.6154 90.7576C76.3963 90.9726 76.725 91.1877 76.6154 91.4027C76.5059 91.7253 76.6154 92.1554 76.3963 92.4779C76.725 93.1231 76.6154 93.8757 77.2727 94.3058C77.2727 94.5208 77.4918 94.5208 77.6013 94.7359H77.8204C77.8204 95.0584 78.1491 95.381 78.4777 95.4885C78.8063 95.4885 79.0254 95.596 79.3541 95.7036C79.7922 95.4885 80.1209 96.1336 80.6686 95.9186C80.6686 96.1336 80.8877 95.9186 80.9972 96.0261C81.3259 96.0261 81.6545 95.8111 81.8736 95.596C82.3118 95.381 82.5309 95.0584 82.75 94.7359C82.9691 94.7359 83.1882 94.6284 83.2977 94.8434C83.4073 94.8434 83.4073 95.0584 83.4073 95.166C82.9691 96.0261 82.2023 96.0261 81.6545 96.6713C81.1068 96.9938 80.4495 96.8863 79.9018 96.8863C79.6827 96.5637 79.2445 96.6713 79.0254 96.4562C78.9159 96.2412 78.5872 96.4562 78.3681 96.2412C77.7109 96.2412 76.944 95.596 76.725 95.0584C76.2868 94.8434 76.6154 94.4133 76.2868 94.3058C76.2868 93.9832 76.0677 93.6607 76.0677 93.3381C75.739 93.1231 75.8486 92.5855 75.6295 92.2629C75.8486 92.0479 75.3009 91.9403 75.5199 91.7253C75.1913 91.6178 75.5199 91.2952 75.3009 90.9726C75.4104 90.3275 75.5199 89.5749 75.5199 88.9297C75.3009 88.1771 75.8486 87.747 75.739 86.9944C75.9581 86.2417 76.3963 85.5966 76.8345 84.8439C77.1631 84.6289 77.1631 83.9838 77.7109 84.0913C77.93 84.0913 78.149 83.8763 78.3681 83.6612C78.6968 83.4462 79.0254 83.4462 79.3541 83.4462C79.6827 83.3386 80.1209 83.4462 80.4495 83.2311C80.8877 83.3386 81.2163 83.4462 81.545 83.6612C82.2023 84.1988 83.1882 84.6289 83.0786 85.5966C82.8595 85.5966 82.6404 86.0267 82.4214 85.8116C81.9832 85.4891 81.545 84.8439 80.8877 84.9515C80.6686 84.6289 80.2304 84.8439 79.9018 84.5214C79.4636 84.7364 79.0254 84.5214 78.8063 84.8439C78.3681 84.9515 78.0395 85.3815 77.4918 85.4891C77.6013 85.4891 77.7109 85.9192 77.3822 86.0267Z" fill="white"/>
<path d="M83.7359 83.4463C83.6264 83.1237 83.1882 83.0162 83.0786 82.8011C82.6405 82.8011 82.4214 82.2635 82.0927 82.156C81.8736 82.0485 81.6545 82.156 81.545 82.156C81.3259 82.0485 81.1068 81.941 80.9973 81.7259C80.8877 81.7259 80.6686 81.6184 80.5591 81.6184L85.3791 86.3493C85.5982 85.5967 85.16 85.0591 84.9409 84.414C84.3932 83.9839 84.0646 83.7688 83.7359 83.4463Z" fill="white"/>
</svg>
