<svg width="10" height="5" viewBox="0 0 10 5" fill="none" xmlns="http://www.w3.org/2000/svg">
<path d="M0.118539 0.644676L4.69846 4.88387C4.77891 4.95833 4.8868 5 4.99914 5C5.11148 5 5.21937 4.95833 5.29981 4.88387L9.88146 0.644676C9.91898 0.609993 9.94879 0.568526 9.96915 0.522722C9.98951 0.476918 10 0.427705 10 0.377988C10 0.328271 9.98951 0.279058 9.96915 0.233254C9.94879 0.187449 9.91898 0.145982 9.88146 0.1113C9.80453 0.0399461 9.70125 -4.24055e-07 9.59371 -4.19354e-07C9.48616 -4.14653e-07 9.38289 0.0399461 9.30596 0.1113L4.99914 4.09772L0.693183 0.1113C0.616289 0.0401916 0.513196 0.000399567 0.405861 0.000399572C0.298526 0.000399576 0.195432 0.0401916 0.118539 0.1113C0.0810244 0.145983 0.0512076 0.187449 0.0308483 0.233254C0.010489 0.279058 -2.04208e-07 0.328272 -2.02035e-07 0.377988C-1.99861e-07 0.427705 0.010489 0.476918 0.0308483 0.522722C0.0512076 0.568527 0.0810244 0.609993 0.118539 0.644676Z" fill="#555555"/>
</svg>
