<svg width="201" height="201" viewBox="0 0 201 201" fill="none" xmlns="http://www.w3.org/2000/svg">
<path d="M151.443 57.9021C150.904 57.9021 150.365 57.9021 149.826 57.9021C149.718 57.9021 149.61 57.9021 149.503 57.9021C147.346 57.9021 145.19 57.0433 143.68 55.5404C142.171 54.0374 141.309 51.9977 141.309 49.7433C141.309 27.0916 122.872 8.73413 100.123 8.73413C77.3732 8.73413 58.9366 27.199 58.9366 49.8506C58.9366 50.1727 58.9366 50.6021 58.9366 50.9241C59.0444 53.0712 58.1818 55.2183 56.6724 56.8286C55.163 58.4389 53.0066 59.2977 50.7425 59.2977H50.3112C27.6697 59.2977 9.12524 77.6552 9.12524 100.307C9.12524 122.959 27.6697 141.209 50.3112 141.209C50.8503 141.209 51.3894 141.209 51.9285 141.209C52.0363 141.209 52.1441 141.209 52.2519 141.209C54.4083 141.209 56.5646 142.067 58.074 143.678C59.5835 145.181 60.446 147.328 60.446 149.475C60.446 149.69 60.446 149.904 60.446 150.012C60.446 172.663 78.8826 191.021 101.632 191.021C124.381 191.021 142.818 172.663 142.818 150.012C142.818 149.475 142.818 148.938 142.818 148.401C142.71 146.147 143.573 144 145.082 142.39C146.592 140.779 148.748 139.92 151.012 139.92H151.443C174.085 139.92 192.629 121.563 192.629 98.9113C192.629 76.2596 174.085 57.9021 151.443 57.9021ZM151.443 134.553H151.012C147.238 134.553 143.68 136.056 141.201 138.74C138.613 141.316 137.319 144.966 137.427 148.616C137.427 149.045 137.427 149.582 137.427 150.012C137.427 169.657 121.362 185.653 101.632 185.653C81.9015 185.653 65.8368 169.657 65.8368 150.012V149.475C65.9447 145.825 64.543 142.39 61.9554 139.813C59.4756 137.237 55.9177 135.734 52.2519 135.734C52.0363 135.734 51.9285 135.734 51.7128 135.734C51.2816 135.734 50.7425 135.734 50.3112 135.734C30.5808 135.734 14.5161 119.738 14.5161 100.092C14.5161 80.4464 30.5808 64.5581 50.3112 64.5581H50.7425C54.5161 64.5581 57.9662 63.0551 60.5538 60.4786C63.1414 57.9021 64.4352 54.3595 64.3274 50.7094C64.3274 50.3874 64.3274 50.0653 64.3274 49.7433C64.3274 30.0975 80.3921 14.1018 100.123 14.1018C119.853 14.1018 135.918 30.0975 135.918 49.7433C135.918 53.3933 137.319 56.7212 139.907 59.2977C142.495 61.8742 145.837 63.2698 149.503 63.2698C149.718 63.2698 149.826 63.2698 150.042 63.2698C150.473 63.2698 151.012 63.2698 151.443 63.2698C171.174 63.2698 187.238 79.2655 187.238 98.9113C187.238 118.557 171.174 134.553 151.443 134.553Z" fill="white" stroke="white" stroke-miterlimit="10"/>
<path d="M151.012 63.3772C150.581 63.3772 150.042 63.3772 149.61 63.3772C149.395 63.3772 149.287 63.3772 149.071 63.3772C145.405 63.3772 142.063 61.9816 139.476 59.4051C136.888 56.8287 135.486 53.5007 135.486 49.8507C135.486 30.2049 119.422 14.2092 99.6912 14.2092C79.9607 14.2092 63.896 30.2049 63.896 49.8507C63.896 50.1727 63.896 50.4948 63.896 50.8168C64.0038 54.4669 62.71 57.9022 60.1224 60.586C57.5348 63.2699 54.0847 64.6655 50.3111 64.6655H49.8799C30.1494 64.6655 14.0847 80.6612 14.0847 100.307C14.0847 119.953 30.1494 135.948 49.8799 135.948C50.3111 135.948 50.8502 135.948 51.2815 135.948C51.4971 135.948 51.6049 135.948 51.8206 135.948C55.4863 135.948 58.9365 137.451 61.5241 140.028C64.1117 142.604 65.5133 146.04 65.4055 149.69V150.226C65.4055 169.872 81.4702 185.868 101.201 185.868C120.931 185.868 136.996 169.872 136.996 150.226C136.996 149.797 136.996 149.26 136.996 148.831C136.888 145.181 138.182 141.531 140.769 138.954C143.357 136.27 146.807 134.767 150.581 134.767H151.012C170.742 134.767 186.807 118.772 186.807 99.126C186.807 79.4803 170.742 63.3772 151.012 63.3772Z" fill="#8E8C5C" stroke="#8E8C5C" stroke-miterlimit="10"/>
<path d="M200.931 102.883C200.931 101.273 199.961 99.9848 198.667 99.3407C200.069 98.6966 200.931 97.4083 200.931 95.798C200.931 94.0804 199.745 92.5774 198.128 92.0406C199.314 91.3965 200.069 90.1083 200.069 88.7127C200.069 86.5656 198.344 84.8479 196.295 84.8479C197.158 84.0965 197.804 83.0229 197.804 81.842C197.804 79.695 196.079 77.9773 193.923 77.9773C193.815 77.9773 193.815 77.9773 193.707 77.9773C194.354 77.3332 194.786 76.367 194.786 75.2935C194.786 73.1464 193.061 71.4287 190.904 71.4287C190.581 71.4287 190.257 71.4287 189.934 71.5361C190.257 70.9993 190.473 70.3552 190.473 69.6037C190.473 67.4566 188.748 65.739 186.592 65.739C186.268 65.739 185.837 65.8463 185.513 65.9537C185.621 65.5243 185.729 65.2022 185.729 64.7728C185.729 62.6257 184.004 60.9081 181.848 60.9081C180.985 60.9081 180.23 61.2301 179.583 61.6595C179.691 61.3375 179.799 60.9081 179.799 60.586C179.799 58.4389 178.074 56.7213 175.918 56.7213C174.947 56.7213 174.085 57.0433 173.438 57.6874C173.438 57.4727 173.438 57.3654 173.438 57.1507C173.438 55.0036 171.713 53.2859 169.556 53.2859C168.371 53.2859 167.292 53.8227 166.538 54.6815C166.43 52.6418 164.705 51.0315 162.656 51.0315C161.362 51.0315 160.176 51.6756 159.422 52.6418C158.99 51.0315 157.481 49.8506 155.648 49.8506C154.031 49.8506 152.737 50.8168 152.09 52.1051C151.767 50.3874 150.257 48.9918 148.317 48.9918C148.963 48.3477 149.395 47.3815 149.395 46.3079C149.395 44.4829 148.101 42.8726 146.376 42.5506C147.562 41.9064 148.317 40.6182 148.317 39.2226C148.317 37.1829 146.699 35.4652 144.651 35.3579C145.513 34.6064 146.052 33.6402 146.052 32.352C146.052 30.2049 144.327 28.4872 142.171 28.4872H142.063C142.602 27.8431 142.926 26.9843 142.926 26.1255C142.926 23.9784 141.201 22.2607 139.044 22.2607C138.721 22.2607 138.397 22.2607 138.182 22.3681C138.505 21.8313 138.721 21.0798 138.721 20.4357C138.721 18.2886 136.996 16.571 134.84 16.571C134.408 16.571 133.869 16.6783 133.438 16.7857C133.654 16.3563 133.761 15.8195 133.761 15.2827C133.761 13.1356 132.036 11.418 129.88 11.418C129.125 11.418 128.478 11.6327 127.939 11.9548C128.047 11.6327 128.047 11.3106 128.047 10.9886C128.047 8.8415 126.322 7.12384 124.166 7.12384C123.303 7.12384 122.441 7.4459 121.794 7.98267V7.87532C121.794 5.72824 120.069 4.01058 117.912 4.01058C116.834 4.01058 115.756 4.44 115.109 5.19147C114.893 3.25911 113.276 1.75615 111.228 1.75615C109.826 1.75615 108.64 2.50763 107.885 3.58117C107.454 1.97086 105.945 0.682617 104.112 0.682617C102.494 0.682617 101.201 1.6488 100.554 2.93705C99.9069 1.6488 98.6131 0.682617 96.9958 0.682617C95.2708 0.682617 93.7613 1.86351 93.3301 3.47381C92.6832 2.29292 91.3894 1.54145 89.9878 1.54145C87.8314 1.54145 86.1064 3.25911 86.1064 5.29883C85.3516 4.44 84.2735 3.79587 83.0875 3.79587C80.9312 3.79587 79.2061 5.51353 79.2061 7.66061C79.2061 7.76796 79.2061 7.76796 79.2061 7.87532C78.4514 7.23119 77.5888 6.80178 76.5107 6.80178C74.3543 6.80178 72.6293 8.51944 72.6293 10.6665C72.6293 10.9886 72.7371 11.3106 72.7371 11.6327C72.198 11.3106 71.5511 11.0959 70.7964 11.0959C68.64 11.0959 66.915 12.8136 66.915 14.9607C66.915 15.3901 67.0228 15.7121 67.1306 16.0342C66.6993 15.9268 66.3759 15.8195 65.9446 15.8195C63.7883 15.8195 62.0632 17.5372 62.0632 19.6842C62.0632 20.5431 62.3867 21.2945 62.8179 21.9387C62.4945 21.8313 62.0632 21.7239 61.7398 21.7239C59.5834 21.7239 57.8584 23.4416 57.8584 25.5887C57.8584 26.5549 58.1818 27.4137 58.8287 28.0578C58.6131 28.0578 58.5053 28.0578 58.2896 28.0578C56.1333 28.0578 54.4082 29.7755 54.4082 31.9225C54.4082 33.1034 54.9473 34.177 55.8099 34.9285C53.7613 35.0358 52.1441 36.7535 52.1441 38.7932C52.1441 40.0814 52.791 41.2623 53.8692 42.0138C52.2519 42.4432 51.0659 43.9462 51.0659 45.7712C51.0659 47.3815 52.0363 48.6697 53.3301 49.3139C51.4972 49.6359 50.2034 51.2462 50.2034 53.0712C50.2034 53.0712 50.2034 53.0712 50.2034 53.1786C50.2034 53.2859 50.0956 53.3933 50.0956 53.5006C49.4487 52.1051 48.1549 51.2462 46.5376 51.2462C44.8126 51.2462 43.3031 52.4271 42.764 54.0374C42.0093 53.0712 40.9312 52.4271 39.5295 52.4271C37.481 52.4271 35.7559 54.0374 35.6481 56.0771C34.8934 55.2183 33.8152 54.6815 32.6293 54.6815C30.4729 54.6815 28.7479 56.3992 28.7479 58.5463C28.7479 58.761 28.7479 58.9757 28.8557 59.083C28.2088 58.5463 27.3462 58.1169 26.3759 58.1169C24.2196 58.1169 22.4945 59.8345 22.4945 61.9816C22.4945 62.411 22.6023 62.7331 22.7101 63.0551C22.0632 62.6257 21.3085 62.3037 20.446 62.3037C18.2896 62.3037 16.5646 64.0213 16.5646 66.1684C16.5646 66.5978 16.6724 67.0272 16.7802 67.3493C16.1333 67.2419 15.8099 67.2419 15.3786 67.2419C13.2223 67.2419 11.4972 68.9596 11.4972 71.1067C11.4972 71.7508 11.7128 72.3949 12.0363 73.039C11.7128 72.9317 11.3894 72.9317 11.0659 72.9317C8.90959 72.9317 7.18452 74.6493 7.18452 76.7964C7.18452 77.8699 7.61579 78.7288 8.26269 79.4803C8.15487 79.4803 8.15487 79.4803 8.04706 79.4803C5.89072 79.4803 4.16565 81.1979 4.16565 83.345C4.16565 84.6332 4.81255 85.7068 5.67509 86.3509C3.51875 86.3509 1.79369 88.0685 1.79369 90.2156C1.79369 91.6112 2.5484 92.8995 3.73439 93.5436C2.11714 93.973 0.931152 95.476 0.931152 97.301C0.931152 98.9113 1.9015 100.2 3.30312 100.844C1.9015 101.488 0.931152 102.776 0.931152 104.386C0.931152 106.211 2.22495 107.714 3.95002 108.144C2.87185 108.788 2.11714 110.076 2.11714 111.472C2.11714 113.404 3.62657 115.014 5.56727 115.336C4.81255 116.088 4.38129 117.054 4.38129 118.128C4.38129 120.275 6.10635 121.992 8.26269 121.992H8.37051C7.83142 122.636 7.50797 123.495 7.50797 124.354C7.50797 126.501 9.23304 128.219 11.3894 128.219C11.7128 128.219 12.0363 128.219 12.3597 128.111C12.0363 128.648 11.8206 129.4 11.8206 130.151C11.8206 132.298 13.5457 134.016 15.702 134.016C16.2411 134.016 16.6724 133.909 17.1037 133.694C16.9958 134.123 16.888 134.553 16.888 135.089C16.888 137.237 18.6131 138.954 20.7694 138.954C21.5241 138.954 22.171 138.74 22.7101 138.417C22.6023 138.74 22.6023 139.062 22.6023 139.384C22.6023 141.531 24.3274 143.248 26.4837 143.248C27.3462 143.248 28.2088 142.926 28.8557 142.39V142.497C28.8557 144.644 30.5807 146.362 32.7371 146.362C33.9231 146.362 35.0012 145.825 35.7559 144.966C35.8638 147.006 37.5888 148.509 39.6373 148.509C41.039 148.509 42.3328 147.757 42.9797 146.576C43.4109 148.294 44.9204 149.582 46.7533 149.582C47.9392 149.582 48.9096 149.045 49.6643 148.294C49.7721 148.831 49.8799 149.368 50.2034 149.797C50.6347 151.193 51.9285 152.159 53.3301 152.373C52.791 153.018 52.3597 153.984 52.3597 154.95C52.3597 156.775 53.6535 158.385 55.3786 158.707C54.1926 159.351 53.4379 160.64 53.4379 162.035C53.4379 164.075 55.0551 165.793 57.1037 165.9C56.2411 166.651 55.702 167.618 55.702 168.906C55.702 171.053 57.4271 172.771 59.5834 172.771H59.6913C59.1522 173.415 58.8287 174.274 58.8287 175.132C58.8287 177.279 60.5538 178.997 62.7101 178.997C63.0336 178.997 63.357 178.997 63.6805 178.89C63.357 179.427 63.1414 180.178 63.1414 180.822C63.1414 182.969 64.8665 184.687 67.0228 184.687C67.5619 184.687 67.9931 184.58 68.4244 184.472C68.2088 184.902 68.101 185.438 68.101 185.975C68.101 188.122 69.826 189.84 71.9824 189.84C72.7371 189.84 73.384 189.625 73.9231 189.303C73.8153 189.625 73.8153 189.947 73.8153 190.269C73.8153 192.416 75.5403 194.134 77.6967 194.134C78.667 194.134 79.4217 193.812 80.0686 193.275V193.383C80.0686 195.53 81.7937 197.247 83.95 197.247C85.0282 197.247 85.9985 196.818 86.7533 196.066C86.9689 197.999 88.5861 199.502 90.6347 199.502C92.0363 199.502 93.2223 198.75 93.977 197.677C94.4082 199.394 95.9177 200.683 97.7506 200.683C99.3678 200.683 100.662 199.716 101.309 198.428C101.955 199.824 103.249 200.683 104.866 200.683C106.592 200.683 108.101 199.502 108.64 197.891C109.287 199.072 110.581 199.824 111.982 199.824C114.139 199.824 115.864 198.106 115.864 196.066C116.618 196.925 117.697 197.569 118.883 197.569C121.039 197.569 122.764 195.852 122.764 193.705C122.764 193.597 122.764 193.597 122.764 193.49C123.519 194.134 124.381 194.563 125.459 194.563C127.616 194.563 129.341 192.846 129.341 190.699C129.341 190.377 129.233 190.055 129.233 189.733C129.772 190.055 130.419 190.269 131.174 190.269C133.33 190.269 135.055 188.552 135.055 186.405C135.055 186.082 134.947 185.653 134.84 185.331C135.271 185.438 135.594 185.546 136.025 185.546C138.182 185.546 139.907 183.828 139.907 181.681C139.907 180.822 139.583 180.071 139.152 179.427C139.476 179.534 139.907 179.641 140.23 179.641C142.387 179.641 144.112 177.924 144.112 175.777C144.112 174.81 143.788 173.952 143.141 173.307C143.357 173.307 143.465 173.307 143.68 173.307C145.837 173.307 147.562 171.59 147.562 169.443C147.562 168.262 147.023 167.188 146.16 166.437C148.209 166.329 149.826 164.612 149.826 162.572C149.826 161.284 149.179 160.103 148.101 159.351C149.718 158.922 150.904 157.419 150.904 155.594C150.904 153.984 149.934 152.695 148.64 152.051C150.473 151.729 151.767 150.119 151.767 148.294C151.767 147.972 151.767 147.757 151.659 147.435V147.328C151.659 147.113 151.659 146.898 151.551 146.791C152.198 147.865 153.492 148.509 154.786 148.509C156.618 148.509 158.236 147.22 158.559 145.503C159.206 146.684 160.5 147.435 161.902 147.435C163.95 147.435 165.675 145.825 165.783 143.785C166.538 144.644 167.508 145.181 168.802 145.181C170.958 145.181 172.683 143.463 172.683 141.316V141.209C173.33 141.745 174.193 142.067 175.055 142.067C177.211 142.067 178.937 140.35 178.937 138.203C178.937 137.881 178.937 137.559 178.829 137.344C179.368 137.666 180.123 137.881 180.769 137.881C182.926 137.881 184.651 136.163 184.651 134.016C184.651 133.479 184.543 133.05 184.435 132.62C184.866 132.835 185.406 132.942 185.945 132.942C188.101 132.942 189.826 131.225 189.826 129.078C189.826 128.326 189.61 127.682 189.287 127.038C189.61 127.145 189.934 127.145 190.257 127.145C192.414 127.145 194.139 125.428 194.139 123.281C194.139 122.422 193.815 121.563 193.276 120.919H193.384C195.54 120.919 197.265 119.201 197.265 117.054C197.265 115.981 196.834 114.907 196.079 114.263C198.02 114.048 199.53 112.438 199.53 110.398C199.53 109.003 198.775 107.822 197.697 107.07C199.637 106.319 200.931 104.708 200.931 102.883ZM151.443 139.92H151.012C148.748 139.92 146.592 140.779 145.082 142.39C143.573 144 142.71 146.147 142.818 148.401C142.818 148.938 142.818 149.475 142.818 150.012C142.818 172.556 124.381 191.021 101.632 191.021C78.8826 191.021 60.446 172.663 60.446 150.012C60.446 149.797 60.446 149.582 60.446 149.475C60.446 147.328 59.6913 145.181 58.074 143.678C56.5646 142.175 54.4082 141.209 52.2519 141.209C52.1441 141.209 52.0363 141.209 51.9285 141.209C51.3894 141.209 50.8503 141.209 50.3112 141.209C27.6697 141.209 9.12522 122.851 9.12522 100.2C9.12522 77.5479 27.6697 59.1904 50.3112 59.1904H50.7425C53.0066 59.1904 55.163 58.3316 56.6724 56.7213C58.1818 55.111 59.0444 53.0712 58.9365 50.8168C58.9365 50.4947 58.9365 50.0653 58.9365 49.7433C58.9365 27.199 77.3732 8.73415 100.123 8.73415C122.872 8.73415 141.309 27.0916 141.309 49.7433C141.309 51.9977 142.171 54.0374 143.68 55.5404C145.19 57.0433 147.238 57.9022 149.503 57.9022C149.61 57.9022 149.718 57.9022 149.826 57.9022C150.365 57.9022 150.904 57.9022 151.443 57.9022C174.085 57.9022 192.629 76.2596 192.629 98.9113C192.629 121.563 174.085 139.92 151.443 139.92Z" fill="#8E8C5C"/>
<path d="M126.645 117.591H107.993L94.4082 132.406V132.62H126.753C130.419 132.62 133.33 129.829 133.33 126.286V123.925C133.222 120.489 130.311 117.591 126.645 117.591Z" fill="white"/>
<path d="M64.1118 111.472C62.6024 112.975 61.8477 114.907 61.8477 116.947V130.473C61.8477 131.654 62.818 132.62 64.004 132.62H78.128C80.1765 132.62 82.225 131.762 83.6266 130.366L118.451 95.6907L99.2601 76.4744L64.1118 111.472Z" fill="white"/>
<path d="M126.538 71.4286L123.519 68.4227C114.354 59.2976 110.689 65.0947 104.759 70.8918L124.058 90.1081C129.88 84.2037 136.349 81.1978 126.538 71.4286Z" fill="white"/>
</svg>
