<svg width="150" height="200" viewBox="0 0 150 200" fill="none" xmlns="http://www.w3.org/2000/svg">
<path d="M60.9848 34.3063C60.6581 28.8226 62.0738 23.3389 64.7963 18.0702C65.3408 16.995 65.8853 16.78 66.7566 17.6401C67.1922 18.0702 67.6278 18.3928 68.0634 18.7154C70.677 21.0809 70.7859 21.0809 69.4791 24.4141C67.7367 28.9301 67.6278 33.6611 67.8456 38.3922C67.9545 39.79 67.5189 40.2201 65.9942 40.2201C60.9848 40.1126 60.9848 40.2201 60.9848 35.274C60.9848 35.1665 60.9848 34.8439 60.9848 34.3063Z" fill="#8E8C5C"/>
<path d="M27.1164 44.8436C27.3342 39.8975 26.8986 34.8439 27.4431 29.7903C28.8588 18.2853 38.7689 8.60814 50.4213 6.99528C64.1429 5.05986 77.7556 14.0918 80.587 28.0699C81.0226 30.1128 81.2404 32.1558 81.2404 34.3063C81.2404 38.2846 81.2404 42.263 81.2404 46.2414H88.2101C87.9923 45.9188 87.9923 45.3812 87.9923 44.6285C88.1012 39.5749 88.319 34.5213 87.7745 29.5752C87.1211 22.8012 84.2897 16.7799 79.7158 11.6188C84.6164 7.64042 93.4374 5.81252 100.189 7.42538C113.584 10.436 121.861 20.9733 121.861 34.9514C121.861 40.4351 121.861 40.4351 127.306 40.22C127.415 40.22 127.632 40.22 127.741 40.22C128.504 40.3276 128.721 39.8975 128.613 39.2523C128.613 36.2417 128.83 33.231 128.504 30.2204C125.999 5.05986 97.0311 -8.38058 75.9043 5.705C74.8152 6.45767 74.1618 6.56519 72.9639 5.81252C65.6675 0.973967 57.6088 -0.853932 48.8967 0.43635C32.5615 2.80187 20.2556 16.7799 20.1467 33.016C20.1467 37.4244 20.1467 41.7254 20.1467 46.1338H27.0075C27.1164 45.9188 27.0075 45.4887 27.1164 44.8436Z" fill="#8E8C5C"/>
<path d="M113.149 46.2415H4.90057C2.17803 46.2415 0 48.3919 0 51.08V195.161C0 197.85 2.17803 200 4.90057 200H113.149C114.564 200 115.762 198.817 115.762 197.419V48.822C115.762 47.3167 114.564 46.2415 113.149 46.2415ZM75.7954 75.0578L95.6155 94.627L75.7954 75.0578ZM80.8049 70.2192L102.912 92.0465L80.8049 70.2192Z" fill="#8E8C5C"/>
<path d="M144.186 46.2415H125.563C123.712 46.2415 122.188 47.7468 122.188 49.5747V196.667C122.188 198.495 123.712 200 125.563 200H144.186C146.908 200 149.086 197.85 149.086 195.161V51.08C149.086 48.3919 146.908 46.2415 144.186 46.2415Z" fill="#8E8C5C"/>
<path d="M149.957 140.002C149.739 139.787 149.521 139.465 149.521 139.25C149.412 139.035 149.304 138.82 148.977 138.605C148.868 137.96 147.997 137.529 147.779 136.777C147.452 136.669 147.997 136.347 147.561 136.347C147.67 135.594 146.908 135.056 146.908 134.304C146.472 134.196 146.799 133.874 146.581 133.659C146.908 132.153 145.383 131.508 145.274 130.11C144.185 129.465 144.294 128.067 143.859 127.207C143.423 126.885 143.532 126.132 142.878 125.917C142.443 124.949 142.334 124.089 142.225 123.229C141.68 122.154 141.027 121.293 140.483 120.218C140.483 120.003 140.483 119.788 140.265 119.681C140.156 119.25 140.156 119.035 139.938 118.713C140.047 118.068 139.829 117.423 139.394 116.885C139.502 116.025 138.413 116.132 138.413 115.38C137.76 115.272 137.978 114.304 137.433 114.089C136.78 114.197 136.127 113.874 135.473 113.444L133.404 113.337C132.424 113.229 131.662 113.767 131.008 114.627C131.117 114.842 130.899 114.949 130.681 115.057C130.028 115.38 130.028 116.132 129.701 116.777C129.484 116.992 129.375 117.315 129.266 117.423V118.175C128.612 118.283 129.375 118.82 128.83 119.143C128.939 120.111 128.068 120.863 128.177 121.831C128.286 121.723 127.523 123.229 127.523 123.229C127.523 123.981 126.761 124.412 126.761 125.164C126.325 125.594 126.108 126.239 126.325 126.885C125.89 127.53 125.781 128.497 125.563 129.143C125.563 130.003 124.474 130.648 124.583 131.616C124.474 131.831 124.474 132.153 124.256 132.261C124.474 132.798 123.821 132.906 123.93 133.336C123.821 134.411 122.949 134.949 122.949 135.917C122.841 136.347 122.514 136.669 122.405 137.207C122.732 137.96 121.425 138.067 121.86 138.82C121.207 138.927 121.752 139.787 121.316 140.002C121.425 140.648 121.098 141.615 121.643 142.153C121.86 143.013 122.841 142.798 123.603 143.013C124.147 143.013 124.692 143.336 125.127 143.013C125.89 143.228 126.108 142.368 126.761 142.583C127.523 142.475 127.414 141.508 127.632 140.863H127.741L127.85 139.572H127.959C128.177 139.465 127.85 139.25 128.068 139.142C128.068 138.175 128.612 137.744 128.721 136.884C129.375 136.347 129.157 135.486 129.81 134.841C129.701 134.411 130.028 134.196 130.246 133.874C131.553 133.551 130.573 132.691 133.186 132.906C133.295 132.906 133.622 133.013 133.948 132.906C134.166 133.336 135.255 132.798 135.473 133.336C135.8 133.228 136.127 133.444 136.453 133.121C136.78 133.228 137.107 133.013 137.324 133.228C137.978 133.444 138.958 132.906 139.611 133.336C140.156 134.304 141.354 134.734 141.572 136.024C141.68 136.669 142.116 137.314 142.225 138.175C142.769 138.82 142.661 139.787 143.314 140.433C143.205 140.755 143.641 140.863 143.75 141.078C144.294 143.443 146.908 142.26 148.65 142.691C149.195 142.798 149.304 142.798 149.63 142.476C150.284 141.938 149.848 140.755 149.957 140.002ZM145.165 139.357C143.967 138.927 144.512 137.744 143.641 137.207C143.75 136.454 142.552 136.562 142.878 135.594C142.225 134.734 142.225 133.981 141.68 133.013C142.007 132.368 141.027 132.046 141.027 131.508C140.7 131.078 140.591 130.863 140.047 130.648C138.849 130.863 137.651 130.755 136.453 131.078C135.8 131.293 135.146 130.54 134.711 131.186C134.057 130.863 133.404 131.401 132.533 131.186C132.206 130.755 131.008 130.863 130.246 130.648C129.81 131.078 129.484 130.218 129.048 130.755C129.484 131.616 128.177 131.938 128.068 132.583C127.959 133.013 127.523 133.228 127.632 133.659C126.979 134.411 126.761 135.486 126.652 136.347C126.325 136.669 126.434 136.992 126.325 137.207C125.89 137.637 125.672 138.282 125.127 138.82C125.236 138.927 125.019 139.142 125.019 139.25C124.692 139.357 124.365 139.142 124.147 139.357C123.712 139.142 123.712 138.712 123.712 138.282C123.93 137.637 124.038 136.992 124.692 136.454C124.801 135.917 124.801 135.486 125.127 134.841C126.325 133.444 125.999 131.293 127.305 129.895C127.197 129.465 127.632 129.25 127.523 128.712C128.068 128.067 128.503 126.885 128.286 125.917C128.721 125.594 129.048 125.272 129.048 124.627L129.266 124.412C129.266 123.981 129.701 123.766 129.701 123.229C129.592 121.186 131.117 120.218 131.444 118.283C132.424 117.638 131.553 116.455 132.751 115.81C133.948 116.132 135.364 114.304 135.909 116.132C135.473 116.992 136.562 117.1 136.562 117.853C136.998 118.175 137.651 118.82 137.542 119.358C137.978 119.681 137.76 120.218 138.196 120.433C138.413 120.863 138.849 121.078 138.849 121.723C140.047 122.261 139.285 123.659 140.156 124.412C139.938 124.842 140.591 125.057 140.374 125.702C141.027 126.67 141.245 127.745 142.007 128.605V128.82C141.898 128.712 141.898 128.928 141.789 128.928C141.68 129.358 142.334 129.358 142.443 129.788C142.334 130.325 143.205 130.648 142.878 131.401L142.769 131.508C143.532 131.938 143.314 132.691 143.859 133.228C143.967 134.304 145.165 135.056 145.274 136.132C145.928 136.992 146.037 137.744 146.254 138.82C146.145 139.357 145.71 139.572 145.165 139.357Z" fill="white"/>
<path d="M137.978 125.379C138.305 124.949 137.76 124.734 137.651 124.411C137.76 123.874 137.107 123.766 137.107 123.121C136.671 122.476 136.78 121.508 136.127 120.97C136.018 120.433 135.691 120.003 135.691 119.465C135.364 119.358 135.038 119.035 134.493 119.035C133.731 118.712 133.949 119.788 133.404 119.573L133.295 119.68C132.751 120.325 132.642 121.078 132.533 121.831C131.662 121.938 132.424 122.906 131.662 123.121C131.771 123.551 131.335 123.766 131.444 124.196C130.791 124.519 131.553 125.594 130.791 125.809C130.682 126.132 131.008 126.132 131.117 126.239C130.791 126.347 130.791 126.669 130.464 126.884C130.573 127.529 130.137 127.852 130.137 128.39C130.246 128.82 131.117 128.712 131.444 128.82C132.206 129.142 133.295 128.927 134.058 128.927C134.384 128.82 134.82 129.142 134.82 128.712C134.929 128.712 134.929 128.605 135.038 128.712C135.038 128.82 135.473 128.712 135.256 128.82C135.364 128.712 135.909 129.142 136.562 128.927C137.543 128.712 138.74 129.035 139.721 128.605C140.047 128.067 139.394 127.529 139.503 126.884C138.523 126.669 138.74 125.916 137.978 125.379ZM136.236 127.637C135.8 127.529 135.8 127.959 135.364 128.067C134.711 127.959 134.167 128.497 133.622 127.959C133.295 128.067 133.078 127.959 132.969 127.852C133.078 127.422 132.642 127.207 132.315 126.884C132.969 126.239 132.969 125.271 133.622 124.734C133.731 124.089 133.622 123.228 134.275 122.906C134.602 123.013 134.711 122.691 134.929 122.798C135.473 123.228 135.582 124.089 136.018 124.519C136.236 125.164 136.454 125.486 136.562 126.132C136.889 126.562 136.453 127.099 136.236 127.637Z" fill="white"/>
<mask id="mask0_189_331" style="mask-type:alpha" maskUnits="userSpaceOnUse" x="0" y="46" width="116" height="154">
<path d="M113.149 46.2415H4.90057C2.17803 46.2415 0 48.3919 0 51.08V195.161C0 197.85 2.17803 200 4.90057 200H113.149C114.564 200 115.762 198.817 115.762 197.419V48.822C115.762 47.3167 114.564 46.2415 113.149 46.2415ZM75.7954 75.0578L95.6155 94.627L75.7954 75.0578ZM80.8049 70.2192L102.912 92.0465L80.8049 70.2192Z" fill="#010202"/>
</mask>
<g mask="url(#mask0_189_331)">
<path d="M210.506 121.078L99.1002 62.1551C98.3379 61.7251 97.4667 61.51 96.4866 61.51C95.5065 61.51 94.7442 61.7251 93.873 62.1551L-17.2065 121.078C-20.0379 122.583 -20.0379 126.562 -17.2065 127.96L94.1997 186.882C94.962 187.312 95.8332 187.528 96.8133 187.528C97.7934 187.528 98.5557 187.312 99.4269 186.882L210.615 127.96C213.338 126.454 213.338 122.476 210.506 121.078ZM208.982 125.271L97.5756 184.194C97.2489 184.302 96.9222 184.409 96.4866 184.409C96.051 184.409 95.7243 184.302 95.3976 184.194L-15.8997 125.271C-16.2264 125.056 -16.3353 124.841 -16.3353 124.519C-16.3353 124.304 -16.2264 123.981 -15.8997 123.874L76.0131 75.273L75.7953 75.058L76.0131 75.273L82.4383 71.9398L80.8048 70.3269L82.4383 71.9398L95.5065 64.9508C95.8332 64.7357 96.1599 64.7357 96.5955 64.7357C97.0311 64.7357 97.3578 64.8432 97.6845 64.9508L208.982 123.874C209.309 123.981 209.417 124.304 209.417 124.519C209.526 124.734 209.417 125.056 208.982 125.271Z" fill="white"/>
</g>
<path d="M94.853 91.8315C95.5064 90.1112 96.9221 88.9284 98.0111 87.5306L98.12 87.6381C98.12 87.6381 98.2289 87.6381 98.2289 87.5306L90.8237 80.219C90.7148 80.434 90.7148 80.6491 90.2791 80.8641C90.1702 80.9717 90.1702 81.1867 90.0613 81.2942C89.9524 81.4018 89.7346 81.5093 89.6257 81.7243C89.5168 81.9394 89.1901 81.9394 89.1901 82.0469C88.8634 82.477 88.6456 82.7996 88.5367 83.2297C88.4278 83.4447 88.6456 83.6597 88.4278 83.7673C88.4278 83.8748 88.4278 84.1974 88.3189 84.1974C88.1011 84.6275 88.21 85.4877 88.4278 85.8102C88.6456 86.1328 88.3189 86.2403 88.3189 86.3478C88.3189 86.6704 88.4278 86.5629 88.6456 86.7779C88.7545 86.993 88.6456 87.1005 88.7545 87.208C88.8634 87.4231 89.1901 87.3156 89.299 87.9607C89.299 88.1757 89.7346 88.2833 90.1702 88.7134C90.2791 88.8209 90.4969 89.0359 90.6058 89.251C90.6058 89.466 90.7147 89.5735 90.7147 89.6811L93.8729 92.7992C94.0907 92.3692 94.4174 92.0466 94.853 91.8315ZM94.4174 86.1328C94.5263 86.2403 94.4174 86.3478 94.3085 86.3478H94.0907C94.0907 86.2403 94.4174 86.0253 94.4174 86.1328ZM93.0017 90.1112C92.675 90.2187 92.4572 89.8961 92.3483 89.7886C92.2394 89.0359 92.0216 88.2833 92.4572 87.7456L93.3284 86.993C93.9818 87.208 94.6352 86.7779 95.0708 87.6381C95.1797 87.5306 95.3975 87.7456 95.5064 87.8532C94.9619 88.7134 94.4174 90.4337 93.0017 90.1112Z" fill="white"/>
<path d="M113.258 169.356C112.931 168.926 112.822 168.604 112.277 168.389C111.08 168.496 109.991 168.066 109.555 166.991C109.882 166.238 108.902 166.023 109.228 165.378C108.684 164.948 108.248 164.303 107.486 164.41C107.377 164.303 107.05 164.195 107.159 163.98C106.941 163.335 106.179 162.797 106.506 162.26C107.05 161.83 106.506 161.292 106.941 160.97C106.724 160.432 106.832 159.679 106.615 158.927C106.288 157.959 106.941 156.991 106.724 155.916C106.832 155.808 106.832 155.701 106.832 155.701C107.159 154.196 106.179 153.228 106.506 151.615C106.832 151.4 106.397 150.862 106.832 150.862V150.54C107.486 150.11 107.813 149.465 108.248 148.819C108.575 148.174 107.813 147.959 107.704 147.422C106.832 146.561 106.288 145.594 105.743 144.733C104.981 144.626 105.308 143.873 104.763 143.443C104.872 143.013 104.328 142.583 104.437 141.938C104.763 140.648 104.545 139.25 104.545 138.067C104.219 137.422 104.437 136.777 104.545 136.024C105.417 135.056 104.545 133.874 104.872 132.798C104.981 132.368 105.308 132.046 105.199 131.508C105.308 130.54 104.763 129.25 105.09 128.067C105.526 127.852 105.09 127.315 105.526 127.1C105.526 126.67 105.417 126.132 105.634 126.024C105.634 125.702 105.308 125.272 105.199 124.949C105.09 124.734 104.872 124.519 104.545 124.627C104.219 124.089 103.674 123.336 104.219 122.799C104.11 122.369 104.437 121.938 104.654 121.508C104.545 120.648 104.872 119.573 104.437 118.82C103.674 117.315 104.763 115.917 104.328 114.412C104.763 113.982 104.437 113.444 104.545 112.907C103.674 112.261 104.545 111.401 104.001 110.756C104.437 109.681 104.11 108.283 104.11 107.208C103.674 106.348 104.219 105.38 104.001 104.52C104.219 103.552 104.11 102.799 104.11 101.832C104.763 101.079 104.001 100.541 104.001 99.6811C104.328 98.9285 103.892 97.9607 104.11 97.2081L104.001 96.993C104.001 95.2727 103.674 93.6598 103.783 91.7244C103.021 91.1868 104.219 90.4341 103.674 89.6814C103.892 89.0363 103.565 88.6062 103.565 88.0686C104.11 87.9611 104.219 87.4234 104.763 87.1009C105.417 87.2084 105.743 86.6708 106.179 86.3482C105.852 85.7031 106.724 85.7031 106.506 85.0579C105.852 84.6278 106.288 83.8752 106.179 83.1225C105.852 83.015 105.961 82.7999 105.961 82.5849C105.852 82.4774 105.743 82.2623 105.526 82.3698C105.199 81.9397 104.437 82.0473 104.219 81.4021C102.803 81.1871 102.694 79.4667 101.714 78.6065C101.17 78.9291 100.952 78.1764 100.516 78.1764C99.9716 77.4238 98.7737 76.8861 98.8826 76.026C98.8826 75.9184 98.7737 75.9184 98.7737 75.9184C98.6648 75.5959 98.5559 75.1658 98.3381 74.9507C98.447 74.5206 98.447 74.1981 98.447 73.8755C98.5559 73.768 98.8826 73.6604 98.447 73.4454C98.447 72.8003 98.3381 72.1551 98.447 71.2949C98.3381 71.0799 98.1203 71.0799 98.0114 70.8648C97.9025 70.4347 98.1203 70.3272 98.0114 70.1122C97.9025 70.0046 97.2491 68.8219 96.3779 68.7144C95.8334 69.0369 95.7245 69.3595 95.6156 69.6821C95.3978 69.8971 95.5067 70.1122 95.5067 70.3272C95.2889 70.7573 95.3978 71.6175 95.3978 72.2626C95.3978 72.6927 95.18 72.9078 95.18 73.2303C95.18 73.3379 95.18 74.7357 94.7444 75.1658C94.6355 75.5959 94.7444 75.8109 94.6355 76.1335C94.5266 76.456 94.1998 76.7786 93.982 76.9937C93.8731 77.3162 93.5464 77.6388 93.3286 77.9614C93.1108 78.2839 92.893 78.1764 92.7841 78.2839C92.5663 78.499 92.6752 78.6065 92.5663 78.714C92.4574 78.8216 92.4574 78.8216 92.3485 78.9291C92.0218 79.2517 91.9129 79.5742 91.6951 79.7893C91.5862 79.8968 91.3684 79.8968 91.2595 80.1118C91.1506 80.2194 91.1506 80.2194 91.0417 80.3269L98.447 87.6385C98.6648 87.531 98.6648 87.1009 98.9915 86.9934C99.1004 87.1009 99.2093 87.1009 99.3182 87.3159C99.6449 87.4234 99.8627 86.9933 100.298 87.1009C100.843 87.3159 101.605 87.531 101.605 88.0686C101.932 88.7137 101.17 89.0363 101.278 89.6814C101.17 89.789 101.061 89.8965 101.061 90.004L103.239 92.1545L101.061 90.004C99.9716 91.4018 98.7737 92.5846 97.4669 93.9824C96.8135 94.0899 96.9224 94.735 96.5957 95.2727C95.9423 96.2404 94.9622 96.5629 94.6355 97.5307L94.7444 97.6382C94.3087 97.8532 94.0909 98.4984 93.4375 98.2833C92.6752 97.7457 93.1108 96.778 93.0019 96.0253C93.3286 95.5952 92.6752 95.1651 92.893 94.6275C93.2197 94.0899 93.5464 93.4448 94.0909 92.9071L90.9328 89.789C90.9328 89.8965 90.9328 89.8965 90.9328 89.8965C91.0417 90.3266 90.8239 90.3266 90.8239 90.4341C90.8239 90.5416 90.9328 90.5416 90.9328 90.7567C91.0417 90.9717 91.0417 91.1868 91.1506 91.1868C91.2595 91.2943 91.2595 91.6169 91.1506 91.8319C90.8239 92.047 91.1506 92.1545 91.1506 92.262C91.1506 92.4771 91.0417 92.6921 91.0417 92.7996C91.0417 92.9071 91.1506 92.9071 91.1506 93.1222C91.2595 93.3372 91.2595 93.8749 91.0417 93.7673C90.9328 93.7673 91.0417 94.4125 90.9328 94.4125C90.8239 94.305 90.8239 96.6705 90.8239 96.993C90.8239 97.1006 90.715 97.2081 90.715 97.4231C90.715 97.7457 90.715 98.1758 90.715 98.3908C90.715 98.4984 90.8239 98.6059 90.8239 98.8209C90.9328 99.251 90.715 99.036 90.715 99.3586C90.715 99.4661 90.8239 99.4661 90.8239 99.6811C90.8239 99.7887 90.715 99.7886 90.715 100.111C90.6061 100.434 90.715 101.294 90.715 101.509C90.6061 101.939 91.1506 102.262 90.715 102.262V105.487C91.1506 106.455 91.3684 107.638 91.5862 108.713C91.2595 109.251 91.2595 110.218 91.5862 110.864C90.9328 111.509 91.6951 112.691 90.9328 113.337V116.885C91.1506 117.1 91.0417 117.315 90.9328 117.53C91.4773 117.96 90.6061 118.175 90.9328 118.605C91.3684 118.928 90.8239 119.465 91.4773 119.68C91.0417 120.433 91.5862 120.971 91.5862 121.723C92.0218 121.938 91.2595 122.154 91.6951 122.476C91.6951 122.691 91.804 122.906 91.5862 123.121C91.9129 123.981 90.9328 124.412 91.2595 125.272C91.1506 125.917 91.1506 126.885 91.2595 127.53C91.1506 127.637 91.3684 127.96 91.1506 128.067C91.4773 130.003 91.0417 131.938 91.4773 133.981C90.9328 136.454 91.804 139.142 91.804 141.508L91.9129 141.83C91.804 142.798 91.6951 143.658 90.715 144.303C90.0616 144.088 90.2794 144.949 89.7349 145.164C89.7349 145.271 89.626 145.379 89.8438 145.486C89.4082 146.561 87.9925 146.991 87.2302 147.852V149.357C87.6658 149.68 87.5569 150.325 88.1014 150.54C88.3192 150.862 88.7548 151.185 88.6459 151.615C89.5171 152.475 89.0815 154.088 89.0815 155.163H88.9726C88.9726 155.701 89.1904 156.238 89.0815 156.776H88.9726C88.537 157.959 89.626 158.604 89.4082 159.787C89.4082 160.754 89.9527 161.937 89.5171 163.012C89.0815 164.518 87.5569 163.98 86.7945 165.163C86.5767 165.378 86.4678 165.701 86.3589 165.916C86.4678 166.238 86.4678 166.346 86.25 166.561C86.4678 167.743 85.2699 168.604 84.5076 169.249C84.7254 169.679 84.2898 169.786 84.1809 170.109C84.2898 170.539 84.1809 171.184 84.5076 171.722C84.5076 172.367 85.2699 172.582 85.4877 173.227C86.3589 172.797 87.7747 173.657 88.2103 172.475C88.6459 172.582 89.0815 172.367 89.4082 172.69C89.2993 172.582 89.5171 172.475 89.5171 172.475H91.0417C91.5862 173.227 92.3485 172.367 93.1108 172.69C93.6553 173.012 94.3087 172.582 94.8533 172.475C95.18 172.797 95.7245 172.582 96.1601 172.69C96.4868 173.012 96.8135 173.12 97.1402 173.335C98.6648 173.442 99.7538 172.905 101.278 173.335C101.496 172.905 101.932 173.227 102.259 173.12C102.912 172.69 103.565 173.227 104.328 173.227C104.545 173.12 104.763 172.905 104.981 173.012C105.526 172.475 106.615 172.582 107.268 172.905C107.486 173.335 107.921 173.12 108.248 173.442C109.01 173.335 109.773 173.12 110.644 173.227C111.08 172.797 111.624 172.582 112.386 172.797C112.822 172.475 113.911 172.152 113.475 171.292C113.584 170.539 113.475 170.001 113.258 169.356ZM100.952 81.6172C100.516 82.3698 99.9716 82.2623 99.1004 82.2623C98.6648 82.0473 98.447 81.5096 97.9025 81.8322C97.358 82.0473 96.4868 82.2623 95.9423 81.9397C95.2889 82.2623 94.7444 81.6172 94.1998 82.0473C93.7642 81.8322 93.2197 81.8322 93.0019 81.2946C92.7841 80.5419 93.4375 80.1118 93.6553 79.5742C94.6355 79.2517 95.18 78.1764 96.269 78.2839C96.7046 78.3915 96.9224 78.499 97.4669 78.499C98.0114 79.1441 98.9915 78.714 99.536 79.2517C99.8627 79.6818 100.734 79.5742 100.516 80.2194C101.278 80.6495 100.952 81.0796 100.952 81.6172ZM103.456 146.346C103.13 146.561 102.912 147.207 102.259 147.099C101.714 147.422 101.496 146.561 100.952 146.776C100.516 146.561 100.298 146.239 99.9716 145.809C100.081 145.056 100.952 145.056 101.387 145.164C101.496 145.271 101.605 145.486 101.823 145.379C101.714 145.486 101.932 145.486 101.932 145.486C102.041 145.379 102.585 145.379 102.912 145.379C103.13 145.701 103.239 146.024 103.456 146.346ZM99.536 143.658C99.2093 143.228 99.1004 142.906 99.536 142.368C99.8627 142.045 100.081 141.83 100.189 141.4C101.17 141.185 101.605 139.035 102.585 140.433C102.694 141.4 102.803 142.368 102.476 143.121C101.823 143.658 101.061 144.196 100.298 143.873C100.081 143.873 99.6449 143.873 99.536 143.658ZM102.585 135.917C102.15 136.992 101.387 137.852 100.734 138.82C99.7538 138.927 99.4271 140.002 98.8826 140.54C98.3381 140.97 98.5559 141.508 98.0114 142.045C97.9025 142.798 97.2491 143.228 97.0313 143.766C96.269 143.766 95.8334 145.056 94.8533 144.411C94.0909 144.088 93.5464 143.443 93.5464 142.691C93.7642 142.475 93.6553 141.938 93.8731 141.83C93.4375 141.185 94.8532 140.863 94.5265 140.217C96.5957 138.067 99.1004 136.347 100.407 133.766C100.843 133.121 101.387 132.798 101.932 132.153C102.259 132.261 102.585 132.261 102.912 132.583C102.367 133.659 103.239 134.949 102.585 135.917ZM98.447 146.239C98.447 146.776 97.7936 146.669 97.2491 147.099C96.7046 147.099 96.269 146.669 95.7245 146.669C95.3978 146.561 95.18 146.561 95.0711 146.239C94.7443 145.916 95.0711 145.594 95.5067 145.379C96.3779 145.594 97.6847 145.164 98.447 146.239ZM102.367 127.207C102.367 127.422 102.367 127.637 102.259 127.745C102.367 128.39 101.932 129.035 101.932 129.573C100.952 130.325 100.081 131.508 99.1004 132.153C97.6847 134.089 96.0512 135.594 94.5265 137.529C94.3087 137.637 94.0909 137.852 93.8731 137.744C93.4375 137.637 93.4375 137.207 93.2197 136.884C93.2197 136.347 93.1108 135.594 93.6553 135.271C93.5464 134.196 94.1998 133.443 94.6355 132.368C94.8533 131.938 95.0711 131.293 95.8334 131.293C96.9224 130.218 98.6648 128.928 98.9915 127.422C99.6449 126.347 101.17 125.917 101.714 124.734C102.259 124.627 102.476 125.164 102.912 125.487C102.585 126.239 102.041 126.777 102.367 127.207ZM102.367 119.25C102.476 120.326 101.061 120.971 101.278 122.046C101.278 122.369 101.17 122.369 100.952 122.584H100.843C100.952 123.551 99.536 123.874 99.3182 124.842C98.0114 125.809 96.7046 127.1 95.9423 128.497L95.3978 128.928C95.5067 129.358 94.9622 129.573 94.7444 129.895C94.4176 129.895 94.1998 130.218 93.8731 130.003C93.3286 129.465 93.1108 128.497 93.3286 127.637C93.982 127.207 93.7642 126.132 94.4176 125.487C95.0711 123.766 96.5957 122.476 98.0114 121.293C98.1203 120.863 98.7737 120.648 98.7737 120.003C99.1004 119.573 99.7538 119.573 99.7538 118.928C100.952 118.39 100.298 116.455 101.714 116.025C102.367 116.347 102.803 116.67 102.912 117.315C102.694 118.283 102.041 118.713 102.367 119.25ZM101.714 111.294C101.605 111.939 101.714 112.584 101.387 113.014C100.843 113.444 100.952 114.197 100.407 114.734V115.057C99.8627 116.025 98.447 116.455 98.3381 117.745C97.358 118.498 96.8135 119.896 96.1601 120.863C95.5067 121.293 94.9622 122.584 94.0909 121.938C93.7642 121.723 93.4375 121.938 93.1108 121.508C93.2197 120.863 93.0019 120.433 93.2197 119.68C93.1108 118.713 93.8731 118.39 94.1998 117.53C95.18 116.347 95.7245 114.949 96.7046 113.874C97.4669 112.907 98.7737 112.369 99.1004 110.971C99.536 110.649 99.6449 110.003 100.081 109.681C100.081 109.251 100.516 109.143 100.625 108.713C101.061 108.606 101.278 108.606 101.823 108.498L102.476 109.466C102.041 110.003 102.15 110.756 101.714 111.294ZM101.823 103.337C102.259 104.09 101.387 104.52 101.387 105.165C100.952 105.702 100.625 106.24 100.189 106.778C98.7737 108.606 97.0313 110.326 95.7245 112.261C95.3978 112.261 95.18 112.584 94.9622 112.907C94.6354 113.552 94.5265 114.519 93.7642 114.734C93.4375 114.949 93.1108 114.519 93.0019 114.412C92.2396 113.982 93.1108 113.444 93.0019 112.907C93.3286 112.046 92.893 110.971 93.4375 110.218C93.5464 109.896 93.3286 109.788 93.3286 109.466C94.5265 108.821 94.6354 107.315 95.3978 106.348L98.3381 103.229C98.7737 103.229 98.7737 102.584 99.2093 102.262C99.3182 101.617 99.7538 100.756 100.516 100.219C101.17 100.219 101.823 100.219 101.932 100.864C101.714 101.832 102.367 102.584 101.823 103.337ZM92.6752 102.907C92.6752 102.154 93.5464 101.617 93.6553 100.756C93.8731 100.111 94.9622 100.111 94.6355 99.251C95.5067 98.7134 95.9423 97.7457 96.9224 97.2081V97.1006C98.2292 96.2404 98.1203 94.4125 99.536 93.8749C99.8627 93.3372 100.189 93.3372 100.516 92.7996C101.061 92.6921 101.387 93.1222 101.496 93.4448C101.932 94.4125 101.496 95.5952 101.496 96.5629C100.189 98.6059 98.0114 100.434 96.7046 102.692C95.5067 103.444 94.9622 104.627 93.8731 105.702C93.3286 105.595 92.6752 105.81 92.4574 105.165C92.7841 104.412 92.1307 103.444 92.6752 102.907ZM91.5862 147.314C91.5862 147.422 91.2595 147.422 91.2595 147.314H91.5862ZM90.8239 161.185C91.0417 160.432 90.8239 159.357 91.0417 158.604C90.6061 158.174 91.3684 157.851 90.9328 157.421C91.0417 155.701 90.8239 153.765 90.8239 152.045C91.0417 151.615 91.2595 151.185 91.4773 150.755C92.5663 150.647 93.6553 151.077 94.8533 150.862C95.3978 150.217 96.3779 150.432 96.9224 150.217L97.2491 150.432C98.2292 150.325 99.3182 150.11 100.081 151.185C101.278 151.292 102.367 150.97 103.674 150.97C103.565 151.185 103.783 151.185 103.783 151.185C104.437 151.185 104.328 151.83 104.763 152.26C104.437 152.583 104.654 153.12 104.219 153.228C104.763 153.98 104.11 155.378 104.545 156.454C104.763 157.959 104.654 159.464 104.654 160.862C104.219 161.292 104.763 161.83 104.763 162.367C104.872 162.582 104.872 162.797 104.872 163.12C104.763 163.443 104.437 163.873 104.328 164.195C103.674 164.625 102.585 164.41 101.714 164.41C101.061 164.518 100.189 164.303 99.536 164.518C98.5559 164.195 97.4669 164.41 96.5957 164.195C96.0512 164.518 95.6156 164.303 95.0711 164.41C94.4176 164.195 93.7642 164.303 93.1108 164.625C92.6752 164.625 92.3485 164.84 92.0218 164.84C90.0616 164.303 91.0417 162.367 90.8239 161.185ZM88.1014 167.959C87.448 167.528 87.8836 166.991 87.7747 166.346C88.4281 165.916 89.4082 166.238 90.1705 166.023C90.3883 165.486 91.1506 165.916 91.4773 165.701C92.7841 165.486 93.982 165.808 95.2889 165.486C95.8334 165.916 96.4868 165.27 97.0313 165.593C97.358 165.701 98.0114 165.486 98.2292 165.808L100.081 165.593C101.061 165.486 102.041 166.346 103.021 165.808C103.456 165.808 104.328 165.378 104.545 166.131C104.872 166.023 105.09 165.916 105.526 165.916C105.961 166.131 106.397 166.346 106.832 166.453C107.486 166.883 106.615 167.098 106.724 167.744C106.179 168.174 105.199 167.528 104.763 168.174C104.11 167.959 103.239 168.066 102.694 168.281C102.259 167.959 101.496 168.389 101.061 168.174C100.952 168.389 100.625 168.174 100.407 168.174C99.8627 167.851 98.8826 167.851 98.3381 168.174C97.5758 167.636 97.0313 168.389 96.269 167.959C95.0711 167.851 94.1998 168.389 93.0019 167.959C91.6951 168.066 90.1705 168.496 88.9726 167.851C88.7548 168.174 88.3192 168.174 88.1014 167.959ZM106.941 171.077C106.724 171.077 106.506 170.969 106.288 171.184C105.743 170.001 104.219 170.754 103.239 170.539C102.259 171.184 101.061 170.862 99.9716 171.184C99.3182 170.539 98.5559 171.614 97.7936 171.077C96.4868 171.292 95.3978 170.969 94.0909 171.184C93.2197 171.292 92.1307 170.754 91.2595 171.292C90.715 170.969 89.7349 171.184 89.5171 170.324C90.0616 169.356 91.2595 169.894 92.1307 169.786C92.6752 169.679 93.4375 170.217 94.0909 170.001C94.3087 170.109 94.4177 170.109 94.6355 170.109C95.0711 169.786 95.2889 169.894 95.7245 169.786C96.0512 170.217 96.7046 170.001 97.0313 170.001C97.0313 170.109 97.1402 170.109 97.1402 170.109C97.6847 170.001 97.7936 169.679 98.5559 169.679C99.6449 170.109 100.516 170.001 101.714 169.786C102.259 170.754 103.348 169.894 104.001 170.001C104.763 170.432 105.526 170.109 106.397 170.109C106.724 170.217 107.159 170.217 107.268 170.539C107.377 170.539 107.268 170.647 106.941 171.077Z" fill="white"/>
<path d="M50.9658 114.412C49.9857 113.767 48.8967 113.982 47.8077 114.197C47.2632 114.842 46.392 114.627 45.9564 115.487C45.6296 116.455 44.6495 117.1 44.6495 118.175C43.9961 119.035 43.6694 120.218 43.5605 121.293C43.2338 121.723 42.9071 122.261 42.9071 122.799C42.2537 123.229 42.5804 123.981 41.927 124.519C41.6003 125.379 41.2736 126.239 40.6202 126.992C41.0558 128.067 39.6401 128.497 40.1846 129.573C39.8579 130.003 40.0757 130.863 39.6401 131.401C39.2045 132.046 38.7689 133.013 38.2244 133.659C37.6798 133.551 37.0264 133.874 36.8086 133.336C36.5908 132.368 35.3929 131.723 35.5018 130.648C34.8484 130.218 35.3929 129.25 34.8484 128.82C34.7395 128.39 34.4128 127.745 34.3039 127.207C34.6306 126.67 33.6505 126.562 33.9772 125.917C33.5416 125.594 33.6505 125.057 33.4327 124.627C33.3238 123.874 32.3437 123.444 32.4526 122.476C32.017 122.154 32.1259 121.831 32.1259 121.186C31.1458 120.218 31.4725 118.605 30.2745 117.638L30.3834 117.53L30.2745 117.315C30.3834 116.885 29.8389 116.67 29.9478 116.025C29.0766 115.38 29.0766 114.412 28.0965 113.874C27.9876 113.229 27.4431 113.659 27.1164 113.122C26.6808 113.229 26.6808 112.691 26.3541 112.907C25.4829 113.337 24.285 113.337 23.8494 114.412C23.5227 115.057 23.6316 115.702 23.9583 116.24C23.9583 116.67 24.0672 117.422 24.3939 117.853C25.374 117.853 24.6117 118.928 25.374 119.143C25.7007 119.788 25.4829 120.433 26.0274 120.971C25.7007 122.046 26.8986 122.691 26.6808 123.659C26.7897 124.089 27.3342 124.519 27.2253 124.949C27.552 125.594 28.2054 126.454 28.2054 127.207C28.8588 127.852 28.9677 128.82 29.5122 129.573C29.9478 130.433 29.6211 131.723 30.7102 132.261C30.3834 133.121 31.2547 133.659 31.6903 134.411C31.5814 134.626 31.9081 134.841 31.7992 134.949C32.017 135.594 32.3437 136.239 32.4526 136.777C32.3437 137.422 33.106 137.959 33.3238 138.497C33.4327 139.465 34.5217 140.217 34.3039 141.293C34.9573 142.26 36.1552 142.583 36.9175 143.121C38.0065 143.121 39.5312 143.551 40.0757 142.153C41.2736 141.723 40.9469 140.325 41.6003 139.68C41.7092 139.465 41.4914 139.035 41.8181 138.927C42.0359 138.712 41.927 138.067 42.2537 137.852C42.6893 137.207 42.4715 136.024 43.2338 135.379C42.7982 134.734 43.7783 134.411 43.6694 133.874C44.6495 133.444 43.8872 132.046 44.9762 131.508C44.8673 130.863 45.8475 130.755 45.6297 130.003H45.7386C45.6297 129.573 46.1742 129.25 46.0653 128.712C45.9564 128.067 46.7187 127.745 47.0454 127.1C47.1543 126.777 46.6098 126.67 46.9365 126.454C47.6988 126.132 47.5899 125.379 47.9166 124.627C48.0255 124.519 48.0255 124.304 48.2433 124.412V124.089C49.4412 123.551 48.8967 122.261 49.4412 121.401C49.8768 120.756 50.0946 119.788 50.6391 119.035C50.748 118.605 50.9658 118.068 51.2925 117.745C51.2925 117.315 51.4014 116.992 51.7281 116.67C51.2925 115.917 51.7281 114.949 50.9658 114.412ZM46.5009 127.1C46.392 126.992 46.0653 126.777 46.392 126.67H46.5009V127.1ZM46.9365 120.648C46.9365 120.541 46.8276 120.541 46.8276 120.541H46.7187C46.8276 121.616 46.2831 122.584 45.8475 123.551C45.194 124.519 44.8673 125.917 44.8673 127.1C44.5406 128.175 43.5605 129.143 42.9071 130.003C42.5804 130.97 42.7982 131.938 42.0359 132.691C41.7092 133.121 41.6003 133.766 41.3825 134.411C41.7092 135.056 40.7291 135.056 40.9469 135.701C40.5113 135.809 40.2935 136.132 39.9668 136.454C40.0757 137.099 39.4223 137.314 39.6401 137.744C39.5312 138.82 39.0956 139.787 38.1155 140.54C36.8086 140.433 35.5018 140.755 35.0662 139.357C34.9573 138.927 34.8484 138.282 34.3039 137.852C34.0861 136.562 32.9971 135.379 33.2149 133.981C33.106 133.336 32.2348 132.691 32.3437 131.831C31.6903 130.97 31.4725 130.003 30.8191 129.25C30.3834 128.282 29.8389 127.315 29.6211 126.239C29.6211 125.594 29.1855 125.164 29.0766 124.627C28.7499 123.981 28.641 123.229 28.4232 122.476C27.8787 122.154 28.5321 121.186 27.7698 120.863C27.6609 120.218 27.552 119.358 27.1164 118.713C27.0075 118.283 26.6808 117.745 26.5719 117.207C27.2253 116.455 27.6609 117.422 28.0965 117.853C28.2054 118.498 29.4033 119.143 28.7499 120.003C29.2944 120.218 28.641 120.433 28.8588 120.971C29.8389 121.186 29.2944 122.046 29.8389 122.584C30.3834 123.121 30.4924 123.874 30.8191 124.412C30.928 125.379 31.4725 126.132 32.017 126.992C31.9081 127.852 33.2149 128.175 32.7793 129.143C32.9971 129.68 32.9971 130.433 33.4327 130.863C33.5416 131.508 34.0861 131.831 34.0861 132.476C33.8683 133.551 35.3929 133.659 34.9573 134.734C35.9374 135.164 35.284 136.132 36.1552 136.562C36.0463 137.207 36.8086 137.314 37.1353 137.637C37.6798 137.744 38.2244 137.207 38.5511 136.669C38.4422 135.701 40.0757 135.379 39.6401 134.304C40.5113 133.874 39.6401 132.476 40.6202 131.831C41.0558 131.293 41.0558 130.54 41.4914 130.11C41.3825 129.68 41.927 129.68 42.0359 129.143C42.1448 128.497 42.6893 128.067 42.6893 127.315C42.9071 126.024 44.2139 124.949 44.7584 123.659C44.7584 123.229 44.8673 122.691 44.8673 122.154C45.3029 121.723 45.3029 121.078 45.5207 120.433C46.0653 120.003 45.8475 119.143 46.392 118.605C46.9365 118.498 46.8276 117.315 47.481 117.96C47.3721 118.39 47.5899 118.928 47.8077 119.25C47.481 119.68 47.5899 120.433 46.9365 120.648Z" fill="white"/>
<path d="M70.2415 116.992C70.1326 116.347 69.2614 116.239 68.9347 115.702C68.2813 115.809 67.8457 114.734 67.0834 114.626C66.7567 114.519 66.4299 114.519 66.1032 114.734C65.7765 114.519 65.4498 114.411 65.1231 114.089C64.6875 113.981 63.9252 113.874 63.5985 114.196C62.6184 114.089 61.7472 114.304 61.2027 114.949C60.6582 114.841 60.3315 115.379 59.8959 115.594C59.1336 115.809 58.589 116.239 57.8267 116.454C57.1733 117.529 55.8665 118.39 55.7576 119.68C54.8864 120.11 55.322 120.97 55.1042 121.615C54.5597 122.583 54.233 123.551 54.1241 124.626C54.0152 125.056 54.1241 125.701 53.7974 126.131C53.7974 126.992 54.1241 127.959 53.6885 128.819C54.0152 130.862 53.2529 133.228 54.3419 135.056C54.233 135.486 54.4508 135.701 54.6686 136.024C54.7775 137.206 55.1042 138.282 56.1932 139.034C56.0843 139.679 57.1733 139.679 56.9555 140.54C57.0644 140.647 57.1733 140.97 57.3911 140.862C57.5 140.97 57.8267 141.077 57.7178 141.292C57.8267 141.615 58.1534 141.507 58.3712 141.507C58.6979 141.937 59.2425 141.937 59.5692 142.152C60.2226 142.26 60.7671 142.582 61.5294 142.69C61.8561 143.013 62.5095 142.797 62.8362 143.228C63.4896 143.12 64.2519 143.658 65.0142 143.228C65.4498 142.26 66.8656 142.905 67.4101 142.582C67.7368 142.152 68.2813 142.475 68.608 142.045C69.1525 141.615 69.8059 141.077 70.4593 140.755C71.4394 140.432 71.6572 139.357 72.2017 138.927C73.0729 138.066 72.0928 136.991 72.3106 135.808C71.875 135.378 72.2017 134.518 71.7661 134.088C71.5483 133.981 71.3305 133.55 71.0038 133.658C70.2415 133.228 69.1525 133.55 68.3902 133.658C67.7368 134.088 67.7368 134.626 67.6279 135.271C67.4101 135.593 66.9745 135.701 67.0834 135.916C66.5388 137.099 65.232 137.206 64.0341 136.991C63.7074 136.884 63.3807 137.421 63.1629 136.991H62.7273C62.0739 136.884 61.2027 136.454 60.876 135.701C60.3315 135.271 60.6582 134.626 59.8959 134.196C60.0048 133.766 59.6781 133.766 59.5692 133.55C59.5692 132.26 58.6979 130.862 59.2425 129.68C58.8069 129.142 59.3514 128.712 59.0246 128.174C59.1336 127.207 58.9158 126.024 59.2425 125.164C59.5692 124.841 59.1336 124.196 59.5692 124.196C59.6781 123.336 60.3315 122.476 61.0938 122.045C62.0739 121.938 62.5095 120.54 63.5985 120.863C64.4697 120.433 65.6676 120.755 66.43 121.293C67.0834 121.185 67.0834 121.83 67.7368 121.938C68.2813 122.906 69.2614 124.088 70.5682 123.873C70.8949 123.443 71.2216 123.551 71.5483 123.336C72.4195 123.443 72.3106 122.368 72.8551 122.045C73.1818 120.648 72.4195 119.68 72.0928 118.605C71.4394 117.96 70.8949 117.637 70.2415 116.992ZM69.9148 120.54C69.4792 120.648 69.2614 121.4 68.7169 120.863C68.0635 120.325 67.1923 119.035 65.9943 119.357C65.5587 118.82 64.6875 119.142 64.2519 118.712C63.5985 119.035 62.7273 118.712 62.1828 119.357C61.3116 119.465 60.7671 120.325 59.8959 120.433C59.2425 120.755 59.4603 121.508 58.6979 121.723C58.3712 122.476 57.5 123.013 57.7178 124.088C57.8267 124.303 57.6089 124.519 57.3911 124.519C57.5 126.454 56.8466 128.389 57.3911 130.217C56.9555 130.647 57.5 130.862 57.5 131.4C57.3911 131.938 57.6089 132.69 57.1733 133.228C57.7178 134.303 57.6089 135.701 58.6979 136.454C58.6979 136.884 59.1336 136.884 59.3514 137.099L59.787 136.991C59.8959 137.636 60.3315 138.066 60.9849 138.389C61.5294 138.497 61.965 138.497 62.5095 138.819C63.2718 138.389 63.8163 139.464 64.9053 139.142C65.0142 139.464 65.3409 139.249 65.4498 139.249C65.9943 139.142 66.6478 138.927 66.9745 138.604C67.6279 138.282 68.1724 137.636 68.608 137.099C68.9347 137.099 69.2614 136.991 69.5881 137.206C69.8059 137.314 69.697 137.636 69.697 137.851C69.0436 139.357 67.519 139.357 66.6477 140.54C65.6676 141.077 64.4697 140.862 63.4896 140.862C63.054 140.324 62.2917 140.432 61.8561 140.217C61.6383 139.787 60.9849 140.217 60.7671 139.787C59.4603 139.679 58.2623 138.712 57.8267 137.636C57.1733 137.314 57.6089 136.561 56.9555 136.239C56.9555 135.701 56.5199 135.163 56.6288 134.411C56.0843 133.981 56.1932 133.12 55.9754 132.583C56.411 132.153 55.4309 131.938 55.8665 131.615C55.322 131.4 55.8665 130.755 55.5398 130.325C55.6487 129.25 55.8665 127.852 55.9754 126.669C55.5398 125.379 56.6288 124.519 56.411 123.121C56.8466 121.83 57.6089 120.54 58.3712 119.25C59.0247 118.82 58.9158 117.745 59.8959 117.852C60.3315 117.745 60.6582 117.422 61.0938 117.207C61.6383 116.884 62.2917 116.884 62.9451 116.777C63.4896 116.562 64.3608 116.669 64.9053 116.347C65.5587 116.454 66.2121 116.777 66.9745 116.992C68.2813 118.067 70.1326 118.82 69.9148 120.54Z" fill="white"/>
<mask id="mask1_189_331" style="mask-type:alpha" maskUnits="userSpaceOnUse" x="122" y="46" width="28" height="154">
<path d="M144.186 46.2415H125.563C123.712 46.2415 122.188 47.7468 122.188 49.5747V196.667C122.188 198.495 123.712 200 125.563 200H144.186C146.908 200 149.086 197.85 149.086 195.161V51.08C149.086 48.3919 146.908 46.2415 144.186 46.2415Z" fill="#010202"/>
</mask>
<g mask="url(#mask1_189_331)">
<path d="M210.507 121.078L99.1005 62.1551C98.3382 61.7251 97.467 61.51 96.4868 61.51C95.5067 61.51 94.7444 61.7251 93.8732 62.1551L-17.2063 121.078C-20.0377 122.583 -20.0377 126.562 -17.2063 127.96L94.1999 186.882C94.9622 187.312 95.8334 187.528 96.8136 187.528C97.7937 187.528 98.556 187.312 99.4272 186.882L210.616 127.96C213.338 126.454 213.338 122.476 210.507 121.078ZM208.982 125.271L97.5759 184.194C97.2492 184.302 96.9225 184.409 96.4868 184.409C96.0512 184.409 95.7245 184.302 95.3978 184.194L-15.8994 125.271C-16.2261 125.056 -16.335 124.841 -16.335 124.519C-16.335 124.304 -16.2261 123.981 -15.8994 123.874L76.0134 75.273L75.7956 75.058L76.0134 75.273L82.4386 71.9398L80.805 70.3269L82.4386 71.9398L95.5067 64.9508C95.8334 64.7357 96.1601 64.7357 96.5957 64.7357C97.0314 64.7357 97.3581 64.8432 97.6848 64.9508L208.982 123.874C209.309 123.981 209.418 124.304 209.418 124.519C209.527 124.734 209.418 125.056 208.982 125.271Z" fill="white"/>
</g>
</svg>
