<svg width="28" height="28" viewBox="0 0 28 28" fill="none" xmlns="http://www.w3.org/2000/svg">
<g clip-path="url(#clip0_314_482)">
<path d="M17.7037 19.9259C17.7037 20.1224 17.6257 20.3108 17.4868 20.4497C17.3479 20.5886 17.1595 20.6667 16.963 20.6667H6.59264C6.42967 20.6667 6.27412 20.8148 6.14079 20.9111L3.62967 22.8889V11.037C3.62967 10.8406 3.70772 10.6522 3.84663 10.5133C3.98555 10.3743 4.17396 10.2963 4.37042 10.2963H7.22967V8.81482H4.37042C3.78105 8.81482 3.21581 9.04895 2.79907 9.46569C2.38232 9.88244 2.14819 10.4477 2.14819 11.037V24.3704C2.1493 24.5079 2.18869 24.6425 2.26195 24.7589C2.33522 24.8754 2.43947 24.9691 2.56301 25.0296C2.68203 25.0838 2.81326 25.1054 2.94336 25.0924C3.07346 25.0794 3.1978 25.0322 3.30375 24.9556L7.11856 22.1482H17.0741C17.3549 22.1565 17.6343 22.107 17.8952 22.0029C18.1561 21.8988 18.3928 21.7423 18.5907 21.543C18.7886 21.3437 18.9435 21.1059 19.0458 20.8443C19.148 20.5827 19.1955 20.3029 19.1852 20.0222V19.1852H17.7037V19.9259Z" fill="#666666"/>
<path d="M24.3705 10.4593V17.6593L21.7779 15.637C21.6486 15.5367 21.4897 15.482 21.3261 15.4815H11.0372C10.8407 15.4815 10.6523 15.4035 10.5134 15.2645C10.3745 15.1256 10.2964 14.9372 10.2964 14.7408V5.85186C10.2964 5.6554 10.3745 5.46699 10.5134 5.32808C10.6523 5.18916 10.8407 5.11112 11.0372 5.11112H17.3335C17.3354 4.61019 17.4052 4.11184 17.5409 3.62964H11.0372C10.4478 3.62964 9.88256 3.86377 9.46581 4.28051C9.04907 4.69726 8.81494 5.26249 8.81494 5.85186V14.7408C8.81494 15.3301 9.04907 15.8954 9.46581 16.3121C9.88256 16.7288 10.4478 16.963 11.0372 16.963H21.0742L24.6149 19.7111C24.7202 19.7889 24.8442 19.8375 24.9743 19.8518C25.1044 19.8661 25.236 19.8457 25.3557 19.7926C25.4817 19.7326 25.5883 19.6381 25.663 19.5202C25.7377 19.4022 25.7775 19.2656 25.7779 19.1259V9.82964C25.3405 10.1043 24.8668 10.3163 24.3705 10.4593Z" fill="#666666"/>
<path d="M22.889 8.81476C24.9345 8.81476 26.5927 7.15655 26.5927 5.11105C26.5927 3.06555 24.9345 1.40735 22.889 1.40735C20.8435 1.40735 19.1853 3.06555 19.1853 5.11105C19.1853 7.15655 20.8435 8.81476 22.889 8.81476Z" fill="#666666"/>
</g>
<defs>
<clipPath id="clip0_314_482">
<rect width="26.6667" height="26.6667" fill="white" transform="translate(0.666748 0.666626)"/>
</clipPath>
</defs>
</svg>
