<svg width="20" 
    height="20" 
    viewBox="0 0 20 20" 
    fill="none" 
    xmlns="http://www.w3.org/2000/svg">
    <path d="M13.4 2.9C14.4 2.9 15.3 3.3 16 4C16.7 4.7 17.1 5.6 17.1 6.6C17.1 7.5 16.7 8.6 16.2 9.5C14.8 11.9 11.4 15.3 10 16.7C8.6 15.3 5.3 11.9 3.8 9.5C3.2 8.5 2.9 7.4 2.9 6.6C2.9 4.6 4.6 2.9 6.6 2.9C7.4 2.9 8.3 3.5 9.3 4.7L10 5.5L10.7 4.7C12 3.2 12.9 2.9 13.4 2.9ZM13.4 2C12.1 2 10.8 3.1 10 4.1C9.1 3.1 7.9 2 6.6 2C4.1 2 2 4.1 2 6.6C2 7.6 2.4 8.9 3.1 10C5 13.2 10 18 10 18C10 18 15 13.2 16.9 10C17.6 8.9 18 7.6 18 6.6C18 5.4 17.5 4.2 16.7 3.3C15.8 2.5 14.7 2 13.4 2Z" 
        fill="#212121" />
</svg>
