<svg width="24" height="24" viewBox="0 0 24 24" fill="none" xmlns="http://www.w3.org/2000/svg">
<g clip-path="url(#clip0_314_464)">
<path d="M23.5517 7.06467C23.5385 6.05696 23.3524 5.05927 23.0019 4.11623C22.6979 3.32078 22.2336 2.59836 21.6387 1.99515C21.0438 1.39193 20.3313 0.921173 19.5468 0.612956C18.6287 0.263503 17.6587 0.0745478 16.6782 0.054136C15.4159 -0.00307659 15.0156 -0.019043 11.8111 -0.019043C8.60666 -0.019043 8.19593 -0.0190429 6.94274 0.054136C5.96271 0.0746979 4.99322 0.263651 4.0755 0.612956C3.29086 0.920959 2.57827 1.39164 1.98332 1.99488C1.38836 2.59813 0.924152 3.32065 0.620383 4.11623C0.275043 5.04644 0.0890885 6.02967 0.0705556 7.02342C0.0141294 8.30472 -0.00292969 8.71053 -0.00292969 11.9597C-0.00292969 15.2088 -0.0029297 15.6239 0.0705556 16.8959C0.0902392 17.8911 0.275265 18.8731 0.620383 19.8058C0.924662 20.6011 1.38922 21.3233 1.98437 21.9263C2.57952 22.5293 3.29218 22.9998 4.07682 23.3077C4.99201 23.6712 5.96168 23.8737 6.94406 23.9064C8.20774 23.9637 8.60797 23.981 11.8125 23.981C15.0169 23.981 15.4277 23.981 16.6809 23.9064C17.6613 23.8869 18.6313 23.6984 19.5494 23.349C20.3337 23.0404 21.046 22.5695 21.6409 21.9663C22.2358 21.3632 22.7002 20.6409 23.0045 19.8457C23.3496 18.9143 23.5347 17.9324 23.5544 16.9358C23.6108 15.6559 23.6278 15.2501 23.6278 11.9996C23.6252 8.75044 23.6252 8.33798 23.5517 7.06467ZM11.8033 18.104C8.45182 18.104 5.7368 15.3512 5.7368 11.953C5.7368 8.55486 8.45182 5.802 11.8033 5.802C13.4122 5.802 14.9552 6.45005 16.0929 7.60359C17.2306 8.75713 17.8697 10.3217 17.8697 11.953C17.8697 13.5844 17.2306 15.1489 16.0929 16.3024C14.9552 17.456 13.4122 18.104 11.8033 18.104ZM18.1112 7.00879C17.9254 7.00896 17.7414 6.97198 17.5697 6.89996C17.3979 6.82795 17.2419 6.7223 17.1105 6.58908C16.9792 6.45586 16.875 6.29767 16.8039 6.12357C16.7329 5.94948 16.6964 5.76289 16.6966 5.57448C16.6966 5.38621 16.7332 5.19979 16.8042 5.02585C16.8753 4.85191 16.9794 4.69387 17.1107 4.56075C17.242 4.42762 17.3979 4.32202 17.5695 4.24997C17.741 4.17792 17.9249 4.14084 18.1105 4.14084C18.2962 4.14084 18.4801 4.17792 18.6516 4.24997C18.8232 4.32202 18.979 4.42762 19.1103 4.56075C19.2416 4.69387 19.3458 4.85191 19.4168 5.02585C19.4879 5.19979 19.5245 5.38621 19.5245 5.57448C19.5245 6.36748 18.892 7.00879 18.1112 7.00879Z" fill="#555555"/>
<path d="M11.8065 16.9761C14.5254 16.9761 16.7296 14.7375 16.7296 11.9761C16.7296 9.21465 14.5254 6.97607 11.8065 6.97607C9.08756 6.97607 6.88342 9.21465 6.88342 11.9761C6.88342 14.7375 9.08756 16.9761 11.8065 16.9761Z" fill="#555555"/>
</g>
<defs>
<clipPath id="clip0_314_464">
<rect width="23.6308" height="24" fill="white"/>
</clipPath>
</defs>
</svg>
