<svg width="20" 
    height="20" 
    viewBox="0 0 20 20" 
    fill="none" 
    xmlns="http://www.w3.org/2000/svg">
    <path fill-rule="evenodd" 
        clip-rule="evenodd" 
        d="M4.07287 6.15613L4.07402 6.14886L4.07507 6.14157C4.1196 5.83013 4.31962 4.51843 5.15006 3.30102C5.94257 2.13922 7.34611 1 9.99251 1C12.5949 1 14.0532 2.2468 14.9047 3.58642C15.3414 4.27352 15.6194 4.99159 15.7873 5.58703C15.8708 5.8833 15.9253 6.14291 15.9585 6.34462C15.9751 6.44543 15.9859 6.52912 15.9923 6.59336C15.9956 6.62538 15.9976 6.65101 15.9987 6.67028L15.9993 6.68135L15.9998 6.69251L16 6.69715C16 6.69909 16 6.70002 16 6.70003V6.7C16 7.41566 15.9106 8.13416 15.7296 8.85722C15.5732 9.48233 15.2532 10.0632 14.7875 10.7149L9.99982 17.291L5.30007 10.7184L5.29331 10.7089L5.28633 10.6996C4.23139 9.29452 3.8188 7.76353 4.07287 6.15613ZM10.6127 18.1481L15.5985 11.3C16.099 10.6 16.4995 9.9 16.6997 9.1C16.8999 8.3 17 7.5 17 6.7C17 5.9 15.9989 0 9.99251 0C3.9861 0 3.18524 5.3 3.08514 6C2.78482 7.9 3.28535 9.7 4.48663 11.3L9.37961 18.1428L9.99251 19L10.6127 18.1481ZM12 7C12 8.10457 11.1046 9 10 9C8.89543 9 8 8.10457 8 7C8 5.89543 8.89543 5 10 5C11.1046 5 12 5.89543 12 7ZM13 7C13 8.65685 11.6569 10 10 10C8.34315 10 7 8.65685 7 7C7 5.34315 8.34315 4 10 4C11.6569 4 13 5.34315 13 7Z" 
        fill="#212121" />
</svg>
