<svg width="121" height="66" viewBox="0 0 121 66" fill="none" xmlns="http://www.w3.org/2000/svg">
<path d="M69.0887 56.5014C68.9274 56.2967 68.8468 56.092 68.6048 55.9692C67.9597 56.0101 67.4355 55.8054 67.1935 55.2322C67.3548 54.8637 66.8306 54.7409 67.0322 54.3724C66.75 54.1267 66.5484 53.7992 66.1451 53.8811C66.1048 53.8401 65.9435 53.7583 65.9839 53.6354C65.8629 53.3079 65.5 53.0213 65.6613 52.7347C65.9435 52.53 65.6613 52.2434 65.8629 52.0387C65.7419 51.7521 65.7822 51.3426 65.7016 50.9741C65.5403 50.4828 65.8629 49.9506 65.7419 49.4183C65.7822 49.3774 65.7822 49.3364 65.8226 49.3364C65.9839 48.5585 65.4597 48.0263 65.6613 47.2074C65.8226 47.1255 65.621 46.8389 65.8226 46.798V46.6342C66.1451 46.3885 66.3064 46.061 66.5484 45.7334C66.7097 45.365 66.3064 45.2831 66.2661 44.9965C65.8226 44.5461 65.5403 44.0548 65.2581 43.5635C64.8548 43.5225 65.0161 43.1131 64.7742 42.8674C64.8145 42.6627 64.5322 42.4171 64.6129 42.0895C64.7742 41.4344 64.6532 40.6975 64.6935 40.0424C64.5322 39.7148 64.6532 39.3463 64.6935 38.9779C65.1371 38.4865 64.6935 37.8315 64.8548 37.2583C64.9355 37.0535 65.0968 36.8488 65.0161 36.6032C65.0968 36.0709 64.8145 35.4158 64.9758 34.8017C65.2177 34.6789 64.9758 34.3923 65.2177 34.2694C65.2177 34.0238 65.1774 33.7781 65.2984 33.6962C65.2984 33.5325 65.1371 33.3277 65.0968 33.123C65.0161 33.0002 64.9355 32.8774 64.7742 32.9593C64.6129 32.6727 64.3306 32.3042 64.6129 31.9766C64.5726 31.7719 64.7339 31.5263 64.8145 31.3215C64.7742 30.8712 64.9355 30.298 64.6935 29.8885C64.2903 29.1106 64.8548 28.3736 64.6129 27.5548C64.8145 27.3501 64.6935 27.0225 64.7339 26.7769C64.2903 26.4493 64.7339 25.999 64.4516 25.6305C64.6935 25.0573 64.4919 24.3612 64.4919 23.788C64.25 23.3377 64.5322 22.8054 64.4113 22.396C64.5322 21.8637 64.4516 21.4952 64.4516 20.963C64.8145 20.5945 64.371 20.2669 64.4113 19.8575C64.5726 19.4481 64.371 18.9568 64.4516 18.5473L64.4113 18.4655C64.4113 17.5647 64.25 16.7049 64.2903 15.7223C63.8871 15.4357 64.4919 15.0672 64.2097 14.6578C64.3306 14.3302 64.129 14.0846 64.129 13.798C64.4113 13.757 64.4919 13.4704 64.7339 13.3066C65.0564 13.3885 65.2177 13.061 65.4597 12.8972C65.2984 12.5697 65.7419 12.5287 65.621 12.2012C65.258 11.9965 65.5 11.587 65.4597 11.1776C65.2984 11.1367 65.3387 11.0138 65.3387 10.891C65.2984 10.8501 65.2177 10.7272 65.1371 10.7682C64.9758 10.5225 64.5726 10.6044 64.4516 10.2769C63.7258 10.154 63.6855 9.2533 63.1613 8.80292C62.879 8.9667 62.758 8.59821 62.5564 8.59821C62.2742 8.22972 61.6693 7.90218 61.7097 7.45181C61.7097 7.41087 61.629 7.41087 61.629 7.36992C61.5484 7.20615 61.508 7.00144 61.3871 6.87861C61.4274 6.67389 61.4274 6.46918 61.4274 6.30541C61.4677 6.26446 61.629 6.18258 61.4274 6.10069C61.4274 5.77315 61.3871 5.40466 61.4274 4.99523C61.3871 4.91335 61.2661 4.91335 61.2258 4.79052C61.1451 4.5858 61.2661 4.50392 61.2258 4.42203C61.1855 4.34015 60.8226 3.726 60.379 3.68506C60.0968 3.84883 60.0161 4.0126 59.9758 4.21732C59.8548 4.2992 59.9355 4.42203 59.8951 4.54486C59.7742 4.79052 59.8145 5.24089 59.8145 5.56843C59.8145 5.81409 59.6935 5.89598 59.6935 6.10069C59.6935 6.18258 59.6935 6.87861 59.4919 7.12426C59.4516 7.32898 59.4919 7.45181 59.4113 7.65652C59.3306 7.82029 59.1693 7.98407 59.0484 8.10689C59.008 8.27067 58.8468 8.43444 58.6855 8.59821C58.5645 8.76198 58.4435 8.72104 58.4032 8.76198C58.2822 8.84387 58.3226 8.92575 58.2822 8.9667C58.2419 9.00764 58.2016 9.00764 58.1613 9.04858C58 9.21235 57.9597 9.37613 57.8387 9.49895C57.758 9.58084 57.6774 9.58084 57.5968 9.66273C57.4355 9.8265 57.5161 9.94933 57.2339 10.1131C57.1935 10.154 57.1532 10.2769 57.1129 10.3178C57.0322 10.3588 56.9516 10.4406 56.9113 10.5225C56.8306 10.6044 56.7097 10.6044 56.6693 10.6863C56.5081 10.891 56.3871 11.0957 56.3064 11.3004C56.2661 11.4233 56.3871 11.5461 56.2258 11.587C56.2258 11.628 56.2258 11.7918 56.1451 11.7918C56.0242 12.0374 56.1048 12.4878 56.1855 12.6106C56.3064 12.7744 56.1048 12.8563 56.1451 12.8972C56.1451 13.061 56.2258 13.02 56.3064 13.1429C56.3468 13.2248 56.3064 13.3066 56.3468 13.3885C56.4274 13.5114 56.5887 13.4295 56.629 13.757C56.629 13.8798 56.871 13.9208 57.0726 14.1664C57.1129 14.2074 57.2339 14.3302 57.2742 14.453C57.3145 14.6168 57.3145 14.7396 57.3548 14.7806C57.3951 14.9853 57.3145 14.9853 57.3145 15.0672C57.3145 15.1491 57.3548 15.1491 57.3951 15.231C57.4355 15.3129 57.4355 15.4357 57.5161 15.4357C57.5968 15.4766 57.5968 15.6404 57.5161 15.7632C57.3548 15.8861 57.5161 15.927 57.5161 16.0089C57.5161 16.1317 57.4355 16.2136 57.4355 16.2955C57.4355 16.3364 57.5161 16.3774 57.5161 16.4593C57.5564 16.5411 57.5564 16.8277 57.4355 16.7868C57.3951 16.7868 57.4355 17.1553 57.3548 17.1143C57.2742 17.0734 57.3145 18.3017 57.3145 18.4655C57.3145 18.5473 57.2339 18.5883 57.2339 18.7111C57.2339 18.8749 57.2339 19.1205 57.2339 19.2434C57.2339 19.2843 57.3145 19.3662 57.3145 19.4481C57.3548 19.6937 57.2742 19.5709 57.2339 19.7347C57.2339 19.7756 57.3145 19.7756 57.2742 19.8985C57.2742 19.9394 57.1935 19.9394 57.1935 20.1441C57.1532 20.3079 57.1935 20.7583 57.1935 20.8811C57.1532 21.0858 57.4355 21.2496 57.1935 21.2905V23.0101C57.4355 23.5424 57.5161 24.1156 57.6371 24.7297C57.4758 25.0163 57.4758 25.5076 57.6371 25.8352C57.2742 26.1627 57.6774 26.7769 57.2742 27.1044V28.9468C57.3951 29.0697 57.3548 29.1925 57.2742 29.3153C57.5564 29.52 57.1129 29.6429 57.2742 29.8885C57.5161 30.0523 57.2339 30.3389 57.5564 30.4617C57.3548 30.8302 57.5968 31.1578 57.5968 31.5263C57.8387 31.6491 57.4355 31.7719 57.6371 31.9357C57.6371 32.0585 57.6774 32.1813 57.5968 32.2632C57.7581 32.7136 57.2742 32.9183 57.4355 33.4096C57.3548 33.7781 57.3548 34.2285 57.4355 34.597C57.3951 34.6789 57.4758 34.8426 57.3548 34.8836C57.5161 35.9071 57.3145 36.9307 57.5161 37.9952C57.2339 39.3054 57.6774 40.6975 57.6774 41.9667L57.758 42.1305C57.7177 42.6218 57.6371 43.0722 57.1532 43.3997C56.7903 43.3178 56.9113 43.7682 56.629 43.8501C56.629 43.891 56.5887 43.9729 56.6693 44.0138C56.4274 44.587 55.7419 44.7918 55.3387 45.2421V46.02C55.5806 46.1838 55.5 46.5523 55.7822 46.6342C55.9032 46.798 56.1451 47.0027 56.0645 47.2074C56.5081 47.6578 56.3064 48.4766 56.3064 49.0908H56.2661C56.2661 49.3774 56.3871 49.664 56.3064 49.9506H56.2661C56.0645 50.5647 56.629 50.8923 56.4677 51.5064C56.4677 51.9977 56.75 52.6528 56.508 53.1851C56.3064 53.963 55.5 53.6764 55.0968 54.3315C54.9758 54.4543 54.9355 54.6181 54.8548 54.7409C54.8951 54.9047 54.8951 54.9865 54.8145 55.0684C54.9355 55.6826 54.3306 56.1329 53.9274 56.4605C54.0484 56.6652 53.8064 56.7471 53.7661 56.9109C53.8064 57.1565 53.7661 57.4841 53.9274 57.7297C53.9274 58.0982 54.3306 58.1801 54.4113 58.5076C54.8548 58.3029 55.621 58.7124 55.8226 58.1392C56.0242 58.1801 56.2661 58.0573 56.4274 58.221C56.3871 58.1801 56.4677 58.1392 56.4677 58.0982H57.2742C57.5564 58.5076 57.9597 58.0573 58.3629 58.221C58.6451 58.3848 58.9677 58.1801 59.2903 58.1392C59.4516 58.3029 59.7339 58.1801 59.9355 58.221C60.0968 58.3848 60.2984 58.4258 60.4193 58.5895C61.2258 58.6305 61.7903 58.3439 62.5564 58.5895C62.6774 58.3848 62.9193 58.5076 63.0806 58.4667C63.4435 58.262 63.7661 58.5486 64.1693 58.5076C64.2903 58.4667 64.371 58.3439 64.5322 58.3848C64.8145 58.0982 65.379 58.1801 65.7016 58.3029C65.8226 58.5076 66.0645 58.4258 66.2258 58.5895C66.629 58.5486 67.0322 58.4258 67.4758 58.4667C67.7177 58.221 68 58.1392 68.3629 58.221C68.6048 58.0573 69.129 57.8526 68.9274 57.4431C69.25 57.1156 69.2097 56.829 69.0887 56.5014ZM62.9193 43.8091C62.9597 43.8501 63.0403 43.9729 63.1613 43.932C63.1209 44.0138 63.2016 44.0138 63.2419 44.0138C63.3226 43.932 63.5645 43.9729 63.7258 43.9729C63.8871 44.0957 63.9274 44.2595 64.008 44.4233C63.8468 44.5461 63.7258 44.8736 63.4032 44.7918C63.121 44.9555 63 44.5052 62.7177 44.628C62.4758 44.5052 62.3548 44.3414 62.1935 44.1367C62.2742 43.7272 62.7177 43.7272 62.9193 43.8091ZM61.9919 42.9903C61.8306 42.7446 61.7903 42.5808 61.9919 42.3352C62.1532 42.1714 62.2742 42.0486 62.3145 41.8439C62.7984 41.721 63.0403 40.6156 63.5645 41.3116C63.6451 41.8029 63.6855 42.3352 63.5242 42.7446C63.2016 43.0312 62.7984 43.3178 62.3951 43.154C62.2742 43.154 62.0726 43.154 61.9919 42.9903ZM63.5645 38.9369C63.3629 39.5101 62.9597 39.9605 62.5968 40.4518C62.1129 40.5337 61.9516 41.066 61.629 41.3526C61.3468 41.5982 61.4677 41.8848 61.1855 42.1305C61.1451 42.499 60.7822 42.7446 60.6613 43.0312C60.258 43.0312 60.0564 43.6863 59.5322 43.3997C59.129 43.2359 58.8468 42.9084 58.8468 42.499C58.9677 42.4171 58.8871 42.1305 59.0081 42.0486C58.7661 41.721 59.4919 41.5573 59.371 41.1888C60.4597 40.0833 61.7097 39.1416 62.3951 37.7905C62.5968 37.463 62.879 37.2583 63.2016 36.9307C63.3629 36.9717 63.5645 36.9717 63.6855 37.1764C63.4839 37.7905 63.9274 38.4456 63.5645 38.9369ZM61.4274 44.3414C61.4274 44.628 61.0645 44.587 60.8226 44.7918C60.5403 44.7918 60.3387 44.5461 60.0161 44.587C59.8548 44.5052 59.7339 44.5052 59.6532 44.3414C59.4919 44.1776 59.6532 43.9729 59.8548 43.891C60.379 44.0138 61.0645 43.8091 61.4274 44.3414ZM63.4435 34.3923C63.4435 34.5151 63.4435 34.6379 63.3629 34.6789C63.4032 35.0473 63.2016 35.3339 63.2016 35.6615C62.6774 36.0709 62.2742 36.6851 61.75 37.0126C61.0242 38.0362 60.1774 38.8141 59.4113 39.8377C59.2903 39.8786 59.1693 40.0014 59.0484 39.9605C58.8468 39.9196 58.8064 39.6739 58.6855 39.5101C58.6855 39.2235 58.6048 38.855 58.8871 38.6503C58.8468 38.0771 59.1693 37.6677 59.371 37.1354C59.4919 36.8898 59.6129 36.5622 59.9758 36.5622C60.5403 35.989 61.4274 35.3339 61.629 34.556C61.9919 33.9828 62.7581 33.7781 63.0403 33.164C63.3226 33.0821 63.4435 33.4096 63.6451 33.5734C63.6048 33.9009 63.3226 34.1466 63.4435 34.3923ZM63.4435 30.2161C63.4839 30.7893 62.758 31.1168 62.879 31.69C62.879 31.8538 62.8387 31.8538 62.7177 31.9766H62.6774C62.7177 32.4679 61.9919 32.6727 61.871 33.164C61.1855 33.6553 60.5403 34.3513 60.0968 35.0883L59.8145 35.3339C59.8951 35.5796 59.6129 35.7024 59.4516 35.8662C59.2903 35.8662 59.1693 36.03 59.0081 35.9481C58.7258 35.6615 58.6048 35.1702 58.7258 34.7198C59.0887 34.4741 58.9274 33.9419 59.2903 33.6143C59.6129 32.7136 60.4193 32.0176 61.1451 31.4444C61.1855 31.1987 61.5484 31.0759 61.5484 30.7483C61.7097 30.5027 62.0726 30.5027 62.0322 30.1751C62.6774 29.8885 62.3145 28.9059 63.0403 28.6602C63.3629 28.824 63.6048 28.9878 63.6855 29.3563C63.6451 29.7248 63.3226 29.9295 63.4435 30.2161ZM63.121 26.0808C63.0806 26.4084 63.1209 26.7769 62.9597 26.9816C62.6774 27.1863 62.7177 27.5957 62.4355 27.8823V28.0461C62.1532 28.5784 61.4274 28.7831 61.3871 29.4382C60.8629 29.8476 60.5806 30.5436 60.258 31.0759C59.8951 31.2806 59.6532 31.9766 59.2097 31.6491C59.0484 31.5263 58.8468 31.6491 58.7258 31.4034C58.8064 31.0759 58.6855 30.8302 58.7661 30.4208C58.6855 29.9295 59.129 29.7248 59.25 29.2744C59.7339 28.6602 60.0161 27.9233 60.5403 27.3501C60.9435 26.8178 61.5887 26.5722 61.7903 25.8352C61.9919 25.6714 62.0726 25.3439 62.3145 25.1392C62.3145 24.8935 62.5564 24.8526 62.5968 24.6478C62.7984 24.6069 62.9597 24.6069 63.2016 24.525L63.5645 25.0163C63.2822 25.3848 63.3629 25.7533 63.121 26.0808ZM63.2419 20.6354C63.121 21.0858 63.4839 21.4952 63.1613 21.8637C63.3629 22.2322 62.9193 22.4779 62.9597 22.8463C62.758 23.1329 62.5564 23.4196 62.3548 23.7062C61.629 24.6888 60.7419 25.5486 60.0564 26.5722C59.8951 26.5722 59.7742 26.7359 59.6532 26.8997C59.4919 27.2682 59.4113 27.7186 59.0081 27.8823C58.8468 28.0052 58.6855 27.8004 58.6048 27.7186C58.2016 27.4729 58.6451 27.2272 58.6048 26.9406C58.7661 26.4903 58.5242 25.9171 58.8468 25.5486C58.8871 25.3848 58.8064 25.3029 58.8064 25.1392C59.4113 24.7707 59.4516 24.0337 59.8951 23.5014L61.4274 21.8637C61.6693 21.8637 61.6693 21.5362 61.871 21.3724C61.9516 21.0039 62.1532 20.5945 62.5161 20.3079C62.8387 20.3079 63.1613 20.3079 63.2419 20.6354ZM63.0403 16.664C63.2822 17.1962 63.0403 17.7694 63.0403 18.3017C62.3548 19.3662 61.2258 20.3488 60.5806 21.4952C59.9758 21.8637 59.6935 22.5188 59.129 23.0511C58.8468 23.0101 58.5242 23.092 58.4032 22.7645C58.5242 22.4779 58.1613 21.9456 58.4435 21.659C58.4435 21.2905 58.8871 20.963 58.9274 20.5535C59.0484 20.1851 59.6129 20.226 59.4516 19.7756C59.8951 19.489 60.1371 18.9977 60.621 18.7111V18.6292C61.3064 18.1789 61.2258 17.1962 61.9919 16.9096C62.1532 16.623 62.3145 16.623 62.5161 16.3364C62.7984 16.2955 62.9597 16.5002 63.0403 16.664ZM62.9193 13.8389C63.0806 14.1664 62.6774 14.3302 62.758 14.6987C62.1532 15.5176 61.4677 16.1727 60.7822 16.9506C60.4193 17.0325 60.5 17.36 60.3387 17.6057C60.0161 18.097 59.4919 18.2607 59.3306 18.793L59.371 18.8339C59.129 18.9568 59.0484 19.2843 58.6855 19.1615C58.2822 18.8749 58.5242 18.3836 58.4435 17.9741C58.6048 17.7285 58.2822 17.5238 58.4032 17.2372C58.6855 16.7868 59.0484 16.1317 59.6129 15.8451C59.9355 14.9444 60.7016 14.3302 61.2661 13.5932L61.3064 13.6342C61.508 13.5932 61.4677 13.3476 61.629 13.2657C61.6693 13.3066 61.75 13.3476 61.7903 13.4295C61.9516 13.4704 62.0726 13.2657 62.2742 13.3066C62.5564 13.4295 62.9193 13.5114 62.9193 13.8389ZM59.0484 9.45801C59.5322 9.29424 59.8548 8.72104 60.379 8.80292C60.5806 8.84387 60.7419 8.92575 60.9839 8.88481C61.2661 9.2533 61.75 9.00764 62.0726 9.29424C62.2339 9.49895 62.6774 9.45801 62.5968 9.8265C62.9193 9.99027 62.758 10.2359 62.758 10.5225C62.5161 10.891 62.2339 10.8501 61.8306 10.8501C61.629 10.7682 61.4677 10.4816 61.2258 10.6454C60.9435 10.7682 60.5 10.8501 60.2177 10.7272C59.8951 10.891 59.6129 10.5635 59.3306 10.7682C59.129 10.6454 58.8468 10.6454 58.7258 10.3588C58.6048 9.99027 58.9274 9.74461 59.0484 9.45801ZM59.3306 13.02H59.2097C59.1693 12.9382 59.3306 12.8153 59.371 12.8972C59.4113 12.9382 59.3709 12.9791 59.3306 13.02ZM58.3629 13.7161L58.8064 13.3476C59.1693 13.4295 59.4516 13.2248 59.6935 13.6751C59.7742 13.6342 59.8548 13.757 59.8951 13.798C59.6129 14.2074 59.371 15.1081 58.6451 14.9444C58.4839 14.9853 58.3629 14.8625 58.2822 14.7806C58.2016 14.4121 58.121 14.0027 58.3629 13.7161ZM57.9193 44.9555C57.9193 45.0374 57.758 45.0374 57.758 44.9555H57.9193ZM57.5161 52.2024C57.6371 51.8339 57.5161 51.2607 57.6371 50.8513C57.4355 50.6466 57.7984 50.4419 57.5968 50.2372C57.6774 49.3364 57.5161 48.3129 57.5564 47.4121C57.6774 47.1665 57.758 46.9617 57.9193 46.757C58.4839 46.6751 59.0484 46.9208 59.6935 46.798C59.9758 46.4704 60.4597 46.5523 60.7419 46.4295L60.9032 46.5523C61.3871 46.5114 61.9919 46.3885 62.3548 46.9208C62.9597 47.0027 63.5645 46.798 64.2097 46.798C64.1693 46.8798 64.25 46.8798 64.25 46.9208C64.6129 46.9208 64.5322 47.2893 64.7339 47.494C64.5726 47.6578 64.6935 47.9444 64.4516 47.9853C64.7339 48.3947 64.4113 49.0908 64.6129 49.7049C64.7339 50.4828 64.6532 51.2607 64.6532 51.9977C64.4113 52.2434 64.7339 52.489 64.6935 52.7756C64.7339 52.8985 64.7339 53.0213 64.7339 53.1441C64.6935 53.3079 64.5322 53.5535 64.4516 53.7173C64.129 53.922 63.5242 53.7992 63.0806 53.8401C62.758 53.8811 62.2742 53.7992 61.9516 53.922C61.4677 53.7583 60.9032 53.8811 60.4193 53.7583C60.1371 53.922 59.9355 53.7992 59.6129 53.8811C59.2903 53.7583 58.9274 53.8401 58.6048 53.963C58.4032 53.963 58.2016 54.0858 58.0403 54.0858C57.1129 53.8401 57.5968 52.8166 57.5161 52.2024ZM56.1048 55.7235C55.7419 55.4779 55.9839 55.2322 55.9435 54.9047C56.2661 54.659 56.7903 54.8637 57.1935 54.7409C57.3145 54.4543 57.6774 54.659 57.8387 54.5771C58.5242 54.4952 59.129 54.6181 59.8145 54.4952C60.0968 54.7 60.4597 54.3724 60.7419 54.5362C60.9032 54.5771 61.2258 54.4543 61.3468 54.659L62.3145 54.5771C62.7984 54.4952 63.3226 54.9456 63.8468 54.659C64.0887 54.659 64.4919 54.4543 64.6129 54.8228C64.7742 54.7409 64.8951 54.7 65.0968 54.7C65.2984 54.8228 65.5403 54.9047 65.7822 54.9865C66.1048 55.2322 65.6613 55.355 65.7419 55.6826C65.4597 55.9282 64.9758 55.6007 64.7339 55.9282C64.4113 55.8464 63.9677 55.8873 63.6855 55.9692C63.4435 55.8054 63.0806 56.0101 62.8387 55.9282C62.7581 56.0511 62.6371 55.9282 62.5161 55.9282C62.2339 55.7645 61.7097 55.7645 61.4274 55.9282C61.0242 55.6416 60.7419 56.0511 60.3387 55.8463C59.7339 55.7645 59.25 56.0511 58.6451 55.8463C57.9597 55.8873 57.1935 56.133 56.5484 55.8054C56.4274 55.8873 56.2258 55.8464 56.1048 55.7235ZM65.8629 57.3612C65.7419 57.3612 65.621 57.3203 65.5 57.4022C65.2177 56.788 64.4516 57.1565 63.9274 57.0746C63.4435 57.4431 62.7984 57.2384 62.2339 57.4022C61.871 57.0746 61.508 57.6069 61.1048 57.3612C60.4193 57.4431 59.8548 57.2794 59.1693 57.4022C58.7258 57.4431 58.1613 57.1975 57.6774 57.4431C57.3951 57.2794 56.9113 57.4022 56.7903 56.9518C57.0726 56.4605 57.7177 56.7062 58.1613 56.6652C58.4435 56.6243 58.8468 56.8699 59.1693 56.7471C59.2903 56.829 59.3306 56.829 59.4516 56.788C59.6532 56.6243 59.8145 56.7062 60.0161 56.6243C60.1774 56.829 60.5 56.7062 60.7016 56.7471C60.7016 56.788 60.7419 56.788 60.7822 56.829C61.0645 56.788 61.1451 56.5833 61.508 56.5833C62.0726 56.829 62.5161 56.7471 63.1613 56.6243C63.4435 57.1156 64.008 56.6652 64.3709 56.7062C64.7742 56.9109 65.1774 56.7471 65.621 56.7471C65.7822 56.788 66.0242 56.788 66.0645 56.9928C66.0645 57.0746 66.0242 57.1565 65.8629 57.3612Z" fill="#222222"/>
<path d="M88.0807 41.1065C87.9598 40.9837 87.8791 40.8199 87.8791 40.6971C87.7985 40.5742 87.7582 40.4514 87.5969 40.3286C87.5565 39.9601 87.113 39.7554 86.9517 39.3869C86.7904 39.305 87.0727 39.1412 86.8307 39.1412C86.8711 38.7318 86.4678 38.4452 86.4678 38.0767C86.2662 38.0358 86.4275 37.8311 86.3065 37.7082C86.4678 36.9303 85.6614 36.6028 85.6211 35.8658C85.0565 35.4973 85.1372 34.8013 84.8953 34.3509C84.6533 34.1871 84.734 33.7777 84.4114 33.6549C84.1695 33.1636 84.1291 32.7132 84.0485 32.2219C83.7662 31.6487 83.4436 31.1983 83.1211 30.6251C83.1211 30.5023 83.1211 30.3794 83.0001 30.3385C82.9598 30.1338 82.9598 29.97 82.8388 29.8062C82.8791 29.4378 82.7582 29.1102 82.5565 28.8646C82.6372 28.4142 82.0324 28.4551 82.0727 28.0866C81.7098 28.0048 81.8307 27.5134 81.5485 27.3906C81.1856 27.4316 80.863 27.2678 80.5404 27.0221L79.492 26.9812C78.9678 26.9402 78.5646 27.2268 78.242 27.6363C78.2824 27.7591 78.1614 27.8 78.0807 27.8819C77.7582 28.0457 77.7178 28.4551 77.5566 28.7827C77.4356 28.9055 77.3953 29.0693 77.3146 29.1512V29.5606C76.9517 29.6425 77.3549 29.9291 77.113 30.0519C77.1533 30.5842 76.7098 30.9527 76.7501 31.444C76.8307 31.403 76.3872 32.1809 76.3872 32.1809C76.3872 32.5904 75.984 32.7951 75.984 33.2045C75.7824 33.4502 75.6614 33.7777 75.742 34.1053C75.5001 34.4737 75.4598 34.9241 75.3388 35.2926C75.3388 35.743 74.7743 36.0705 74.8549 36.6028C74.8146 36.7256 74.7743 36.8894 74.6936 36.9713C74.8146 37.2579 74.492 37.3397 74.5324 37.5445C74.492 38.1177 74.0485 38.3633 74.0082 38.8956C73.9275 39.1003 73.7662 39.305 73.7259 39.5916C73.8872 40.001 73.242 40.042 73.4436 40.4514C73.0807 40.5333 73.4033 40.9427 73.1614 41.0656C73.2017 41.434 73.0404 41.9254 73.3227 42.171C73.4436 42.6214 73.9275 42.5395 74.3307 42.6214C74.613 42.6214 74.8953 42.7852 75.1372 42.6214C75.5404 42.7442 75.6211 42.2529 75.984 42.3757C76.3872 42.2938 76.3469 41.8025 76.4275 41.475H76.4678L76.5082 40.8199H76.5485C76.6695 40.738 76.4678 40.6561 76.6291 40.5742C76.6291 40.0829 76.9114 39.8373 76.9517 39.3869C77.3146 39.1003 77.1936 38.6499 77.5162 38.3224C77.4356 38.0767 77.6372 37.9539 77.7582 37.8311C78.4436 37.6673 77.9194 37.2169 79.2904 37.3397C79.3711 37.3397 79.5324 37.3807 79.6936 37.3397C79.8146 37.5445 80.3791 37.2988 80.4598 37.5445C80.6211 37.5035 80.8227 37.6263 80.9436 37.4216C81.1049 37.4626 81.2662 37.3807 81.3872 37.5035C81.7501 37.6263 82.234 37.3397 82.5969 37.5854C82.8791 38.1177 83.5243 38.3224 83.6049 38.9775C83.6453 39.3459 83.8872 39.6735 83.9275 40.0829C84.2098 40.4514 84.1695 40.9427 84.492 41.2703C84.4114 41.434 84.6533 41.5159 84.734 41.6388C85.0162 42.867 86.3469 42.2529 87.2743 42.4986C87.5565 42.5804 87.5969 42.5395 87.7985 42.3757C88.242 42.0891 88.0404 41.5159 88.0807 41.1065ZM85.6211 40.779C85.0162 40.5333 85.2582 39.9601 84.8549 39.6326C84.8953 39.2231 84.2904 39.2641 84.4517 38.8137C84.1291 38.3633 84.0888 37.9948 83.8469 37.4626C84.0082 37.0941 83.484 36.9713 83.5243 36.6847C83.363 36.4799 83.2824 36.3571 83.0404 36.2343C82.3953 36.3571 81.7904 36.3162 81.1856 36.4799C80.863 36.6028 80.5001 36.1933 80.2582 36.5209C79.9356 36.3571 79.5727 36.6437 79.1291 36.5209C78.9678 36.2752 78.363 36.3571 77.9598 36.2343C77.7178 36.4799 77.5565 36.0296 77.3146 36.2752C77.5565 36.7256 76.8711 36.8894 76.8307 37.2169C76.7904 37.4626 76.5485 37.5445 76.6291 37.7901C76.2662 38.1995 76.1856 38.7727 76.1049 39.2231C75.9436 39.3869 75.984 39.5507 75.9436 39.6735C75.742 39.9192 75.5807 40.2467 75.3388 40.4924C75.3791 40.5742 75.2985 40.6561 75.2582 40.6971C75.0969 40.738 74.8953 40.6152 74.8146 40.779C74.5727 40.6561 74.613 40.4105 74.613 40.2057C74.734 39.8373 74.7743 39.5097 75.0969 39.2641C75.1775 38.9775 75.1372 38.7318 75.2985 38.4452C75.9436 37.7082 75.742 36.6028 76.4275 35.8658C76.3872 35.6201 76.5888 35.4973 76.5485 35.2517C76.8307 34.8832 77.0324 34.269 76.9517 33.7777C77.1533 33.6139 77.3549 33.4092 77.3549 33.0817L77.4759 32.9589C77.4759 32.7541 77.7178 32.5904 77.6775 32.3447C77.5969 31.2802 78.4033 30.7479 78.5646 29.7653C79.0888 29.3968 78.6453 28.7827 79.2501 28.4551C79.8549 28.6189 80.6211 27.6772 80.9033 28.6189C80.7017 29.0693 81.2662 29.1102 81.2259 29.5196C81.4678 29.6834 81.7904 30.011 81.7501 30.2976C81.992 30.4613 81.8711 30.7479 82.113 30.8708C82.234 31.1164 82.4759 31.2392 82.4759 31.5668C83.1211 31.8534 82.6775 32.5904 83.1614 32.9589C83.0404 33.2045 83.4033 33.3273 83.2824 33.6139C83.6049 34.1053 83.7259 34.6785 84.1291 35.1288V35.2517C84.0888 35.2107 84.0485 35.2926 84.0082 35.2926C83.9678 35.5383 84.2904 35.5383 84.3307 35.743C84.2501 36.0296 84.734 36.1933 84.5727 36.5618L84.5324 36.6437C84.9356 36.8484 84.8146 37.2579 85.0969 37.5445C85.1372 38.1177 85.7824 38.4861 85.8227 39.0593C86.1453 39.5097 86.2259 39.9192 86.3065 40.4514C86.1453 40.738 85.9033 40.8608 85.6211 40.779Z" fill="#222222"/>
<path d="M36.871 27.6774C36.3871 27.3089 35.8226 27.4317 35.2581 27.5546C34.9758 27.923 34.5323 27.8002 34.3306 28.2506C34.1693 28.7419 33.6452 29.0694 33.6452 29.6836C33.2822 30.134 33.1613 30.7481 33.0806 31.3213C32.9193 31.567 32.7581 31.8126 32.7177 32.0992C32.3548 32.3449 32.5564 32.7134 32.2339 33C32.0726 33.4503 31.871 33.9007 31.5484 34.3101C31.75 34.8833 31.0242 35.0881 31.3064 35.6613C31.1452 35.9069 31.2258 36.3573 31.0242 36.6029C30.8226 36.9714 30.5806 37.4218 30.2984 37.7903C30.0161 37.7494 29.6935 37.9131 29.5726 37.6265C29.4516 37.0943 28.8468 36.7667 28.9274 36.1935C28.6048 35.9479 28.8468 35.4565 28.5645 35.2109C28.4839 34.9652 28.3226 34.6377 28.2823 34.392C28.4435 34.1054 27.9193 34.0235 28.121 33.7369C27.879 33.5732 27.9597 33.2866 27.8387 33.0409C27.7984 32.6315 27.2742 32.4268 27.3548 31.9355C27.1129 31.7717 27.1935 31.567 27.1935 31.2804C26.6693 30.7891 26.8306 29.9293 26.2661 29.4379L26.3064 29.397L26.2258 29.2742C26.3064 29.0285 25.9839 28.9057 26.0645 28.5781C25.621 28.2096 25.621 27.7593 25.0968 27.4727C25.0564 27.1042 24.7742 27.3498 24.6129 27.0632C24.4113 27.1451 24.4113 26.8585 24.2097 26.9404C23.7661 27.1861 23.121 27.1451 22.9193 27.7183C22.7581 28.0459 22.7984 28.4144 23 28.701C23 28.9466 23.0806 29.3151 23.2016 29.5198C23.6855 29.5198 23.3226 30.093 23.6855 30.2159C23.8468 30.5434 23.7258 30.9119 24.0484 31.1575C23.8871 31.7307 24.4919 32.0583 24.4113 32.5905C24.4919 32.8362 24.7339 33.0409 24.6935 33.2866C24.8548 33.6551 25.1774 34.0645 25.1774 34.4739C25.5403 34.8424 25.5806 35.2928 25.8629 35.7022C26.1048 36.1526 25.9435 36.8077 26.4677 37.1352C26.3064 37.5856 26.75 37.8722 26.9919 38.2407C26.9113 38.3635 27.1129 38.4454 27.0726 38.5273C27.1935 38.8548 27.3548 39.2233 27.4355 39.5099C27.3952 39.8784 27.7984 40.124 27.879 40.4106C27.9193 40.902 28.4839 41.3114 28.3629 41.8846C28.7258 42.4168 29.2903 42.5806 29.7339 42.8263C30.2984 42.8263 31.1048 43.0719 31.3468 42.294C31.9516 42.0484 31.7903 41.3523 32.1532 40.9838C32.2339 40.861 32.1129 40.6154 32.2742 40.5744C32.3952 40.4516 32.3145 40.124 32.4758 40.0012C32.7177 39.6327 32.5968 39.0186 33 38.691C32.7581 38.3225 33.2822 38.1997 33.2419 37.9131C33.7661 37.6675 33.3629 36.9714 33.8871 36.6848C33.8468 36.3573 34.3306 36.2754 34.2097 35.9069H34.25C34.1693 35.6613 34.4516 35.4975 34.4113 35.2109C34.371 34.8424 34.7742 34.6786 34.8952 34.3511C34.9355 34.1873 34.6935 34.1464 34.8145 33.9826C35.2177 33.8188 35.1774 33.4094 35.2984 33.0409C35.3387 33 35.379 32.8771 35.4597 32.9181V32.7543C36.0645 32.4677 35.8226 31.8126 36.0645 31.3623C36.3064 30.9938 36.4274 30.5434 36.6693 30.134C36.7097 29.8883 36.8306 29.6426 37.0322 29.4789C37.0322 29.2742 37.1129 29.0694 37.2339 28.9057C37.0726 28.4553 37.2742 27.964 36.871 27.6774ZM34.5726 34.3511C34.5323 34.3101 34.371 34.1873 34.5323 34.1054H34.5726V34.3511ZM34.8145 30.9528C34.8145 30.9119 34.7742 30.9119 34.7742 30.8709H34.7339C34.7742 31.4441 34.5323 31.9355 34.2903 32.4268C33.9274 32.959 33.8064 33.6551 33.8064 34.2692C33.6452 34.8424 33.121 35.3337 32.7984 35.7841C32.6371 36.2754 32.7177 36.8077 32.3548 37.2171C32.1935 37.4627 32.1532 37.7903 32.0322 38.1178C32.1935 38.4863 31.6693 38.4863 31.7903 38.8139C31.5887 38.8548 31.4274 39.0595 31.3064 39.2233C31.3468 39.5508 31.0242 39.6737 31.1452 39.9193C31.0645 40.4925 30.8629 40.9838 30.379 41.3933C29.7339 41.3523 29.0484 41.5161 28.8064 40.7791C28.7258 40.5335 28.6855 40.2059 28.4032 40.0012C28.2822 39.3052 27.7581 38.732 27.8387 37.9541C27.7581 37.5856 27.3548 37.299 27.3952 36.8486C27.0726 36.3982 26.9516 35.9069 26.5887 35.4975C26.3871 35.0062 26.1048 34.4739 25.9839 33.9007C25.9839 33.5732 25.7419 33.3275 25.7016 33.0409C25.5403 32.7134 25.5 32.3039 25.3387 31.9355C25.0564 31.7717 25.4193 31.2804 24.9758 31.1166C24.8952 30.7891 24.8548 30.3387 24.6129 30.0111C24.5323 29.7655 24.371 29.5198 24.3306 29.2332C24.6935 28.8238 24.8952 29.356 25.0968 29.6017C25.1371 29.9702 25.7419 30.2568 25.4193 30.7072C25.7016 30.83 25.379 30.9528 25.4597 31.1985C25.9435 31.3213 25.6613 31.7717 25.9839 32.0583C26.2661 32.3449 26.3064 32.7134 26.5081 33.0409C26.5887 33.5322 26.8306 33.9417 27.1129 34.392C27.0726 34.8424 27.7177 35.0062 27.5161 35.4975C27.6371 35.7841 27.6371 36.1526 27.879 36.3982C27.9193 36.7258 28.2016 36.9305 28.2419 37.2171C28.121 37.7903 28.8871 37.8312 28.6855 38.4044C29.1693 38.6501 28.8468 39.1414 29.2903 39.3461C29.2097 39.6737 29.6129 39.7556 29.7742 39.9193C30.0564 39.9603 30.3387 39.6737 30.5 39.3871C30.4597 38.8958 31.2661 38.732 31.0645 38.1588C31.5081 37.9131 31.0645 37.1761 31.5484 36.8486C31.7903 36.562 31.75 36.1935 31.9919 35.9479C31.9113 35.7431 32.2339 35.7022 32.2742 35.4565C32.3145 35.0881 32.6371 34.8833 32.5968 34.5149C32.7177 33.8188 33.4032 33.2866 33.6452 32.5905C33.6452 32.3449 33.7258 32.0992 33.6855 31.8126C33.9274 31.567 33.9274 31.2394 34.0484 30.9119C34.3306 30.6662 34.2097 30.2158 34.4919 29.9702C34.7742 29.8883 34.6935 29.3151 35.0564 29.6017C35.0161 29.8474 35.0968 30.093 35.2177 30.2977C35.0564 30.4615 35.1371 30.8709 34.8145 30.9528Z" fill="#222222"/>
<path d="M46.8304 29.0286C46.7498 28.7011 46.3062 28.6192 46.1853 28.3736C45.8223 28.4145 45.6207 27.8413 45.2578 27.8004C45.0965 27.7185 44.8949 27.7594 44.774 27.8413C44.6127 27.7185 44.4111 27.6775 44.2498 27.4728C44.0078 27.4319 43.6449 27.35 43.4433 27.5547C42.9594 27.4728 42.5159 27.6366 42.1933 27.9641C41.9111 27.8822 41.7498 28.2098 41.5482 28.3326C41.1449 28.4554 40.8627 28.7011 40.4594 28.783C40.0965 29.3562 39.4514 29.8066 39.4111 30.5026C38.9675 30.7073 39.2094 31.1986 39.0482 31.5262C38.7659 32.0175 38.6046 32.5497 38.5643 33.082C38.524 33.3277 38.5643 33.6552 38.403 33.8599C38.403 34.3103 38.5643 34.8425 38.3627 35.252C38.524 36.3165 38.1207 37.5857 38.7256 38.5274C38.6853 38.7321 38.7659 38.8959 38.8869 39.0597C38.9272 39.6738 39.1288 40.247 39.6933 40.6564C39.653 41.0249 40.1772 41.0249 40.0965 41.4343C40.1369 41.4753 40.2175 41.6391 40.3385 41.5981C40.3788 41.68 40.5401 41.7209 40.4998 41.8438C40.5401 42.0075 40.7014 41.9666 40.8223 41.9666C40.9836 42.1713 41.2659 42.2123 41.4272 42.3351C41.7901 42.376 42.032 42.5808 42.4353 42.6217C42.5965 42.7855 42.9191 42.6626 43.1207 42.9083C43.4433 42.8264 43.8465 43.113 44.2498 42.9083C44.4917 42.376 45.1772 42.7445 45.4998 42.5808C45.6611 42.3351 45.9433 42.5398 46.1046 42.2942C46.3869 42.0485 46.7094 41.8028 47.0723 41.6391C47.5562 41.4753 47.6772 40.9021 47.9594 40.6564C48.403 40.2061 47.9191 39.6329 48.0401 39.0187C47.8385 38.7731 47.9998 38.3227 47.7578 38.118C47.6369 38.0361 47.5562 37.8314 47.3546 37.9133C46.9514 37.7085 46.4272 37.8723 45.9836 37.9133C45.6611 38.118 45.6611 38.4455 45.5804 38.7321C45.4594 38.8959 45.2578 38.9368 45.2982 39.1006C45.0159 39.7147 44.3304 39.7557 43.7256 39.6738C43.5643 39.5919 43.403 39.8785 43.282 39.6738H42.9998C42.6369 39.5919 42.1933 39.3872 42.0723 38.9778C41.7901 38.7731 41.9514 38.4046 41.5885 38.1999C41.6691 37.9951 41.4675 37.9542 41.4272 37.8314C41.4272 37.1763 40.9836 36.4393 41.2659 35.7842C41.0643 35.4976 41.3465 35.252 41.1449 35.0063C41.2256 34.515 41.0643 33.9008 41.2659 33.4095C41.4272 33.2458 41.2256 32.9182 41.4272 32.8773C41.5078 32.4269 41.8304 31.9765 42.2336 31.7309C42.7175 31.6899 42.9594 30.953 43.524 31.1167C43.9675 30.8711 44.6127 31.0758 44.9756 31.3624C45.2982 31.2805 45.3385 31.649 45.6207 31.7309C45.903 32.2222 46.3869 32.8363 47.0723 32.7544C47.2336 32.5088 47.4353 32.5907 47.5965 32.4678C48.0401 32.5088 47.9998 31.9356 48.282 31.7718C48.4433 31.0348 48.0804 30.5435 47.8788 29.9703C47.4756 29.5609 47.1933 29.3562 46.8304 29.0286ZM46.7094 30.912C46.5078 30.953 46.3465 31.3624 46.1046 31.0758C45.7417 30.7892 45.2982 30.1341 44.6933 30.2979C44.4514 30.0113 44.0482 30.175 43.8062 29.9294C43.4433 30.0932 43.0401 29.9294 42.7578 30.2569C42.3143 30.3388 42.032 30.7482 41.5885 30.8301C41.2256 30.9939 41.3465 31.4033 40.9836 31.5262C40.8223 31.9356 40.3788 32.2222 40.4998 32.7544C40.5401 32.8773 40.4594 32.9592 40.3385 33.0001C40.3788 34.0237 40.0562 35.0063 40.3385 35.9889C40.1369 36.1937 40.4191 36.3574 40.3788 36.6031C40.2982 36.8897 40.4191 37.2991 40.2175 37.5857C40.4998 38.1589 40.4594 38.8549 41.024 39.3053C41.024 39.551 41.2256 39.51 41.3465 39.6738L41.5482 39.6329C41.5885 39.9604 41.8304 40.2061 42.153 40.3698C42.4353 40.4108 42.6772 40.4517 42.9594 40.5745C43.3627 40.3289 43.6449 40.943 44.2094 40.7383C44.2498 40.9021 44.4111 40.7793 44.4917 40.8202C44.774 40.7793 45.0965 40.6564 45.2982 40.4517C45.6611 40.2879 45.903 39.9604 46.1449 39.6738C46.3062 39.6738 46.5078 39.5919 46.6691 39.7557C46.7901 39.7966 46.7498 39.9604 46.7498 40.0832C46.3869 40.8611 45.6207 40.8611 45.1772 41.5162C44.6933 41.8028 44.0482 41.68 43.524 41.68C43.3223 41.3934 42.9191 41.4344 42.6772 41.3115C42.5562 41.0659 42.2336 41.3115 42.1127 41.0659C41.4675 41.0249 40.8223 40.4927 40.6207 39.9195C40.2578 39.7557 40.4998 39.3463 40.1772 39.1825C40.1772 38.8959 39.9353 38.6093 40.0159 38.2408C39.7336 37.9951 39.8143 37.5448 39.653 37.2582C39.8546 37.0535 39.3707 36.9306 39.5723 36.7259C39.2901 36.6031 39.5723 36.2755 39.4111 36.0299C39.4917 35.4567 39.5723 34.7197 39.653 34.1056C39.4514 33.4095 39.9756 32.9592 39.8949 32.2631C40.1369 31.5671 40.4998 30.912 40.903 30.2569C41.2256 30.0113 41.1853 29.479 41.7094 29.52C41.9514 29.479 42.1127 29.3152 42.3143 29.1515C42.5965 28.9877 42.9191 28.9877 43.2417 28.9468C43.524 28.8239 43.9675 28.9058 44.2498 28.742C44.6127 28.8239 44.9353 28.9468 45.2982 29.1105C45.8627 29.6018 46.7901 30.0113 46.7094 30.912Z" fill="#222222"/>
<path d="M81.871 33.4507C82.0323 33.246 81.75 33.0822 81.7097 32.9594C81.7903 32.6728 81.4274 32.5909 81.4274 32.2634C81.2258 31.8949 81.2661 31.4036 80.9032 31.117C80.8629 30.8304 80.7016 30.6257 80.6613 30.3391C80.5 30.2981 80.3387 30.0934 80.0564 30.0934C79.6532 29.9296 79.7742 30.5028 79.4919 30.38L79.4113 30.4619C79.129 30.7894 79.0484 31.1989 79.0081 31.6083C78.5645 31.6492 78.9274 32.1815 78.5645 32.3043C78.6048 32.55 78.4032 32.6728 78.4435 32.8775C78.0806 33.0413 78.4839 33.6145 78.0806 33.7373C78.0403 33.9011 78.2016 33.9011 78.2419 33.983C78.0806 34.0649 78.0806 34.2286 77.9193 34.3515C78 34.679 77.7581 34.8428 77.7581 35.1294C77.8387 35.375 78.2419 35.2931 78.4435 35.3341C78.8468 35.4979 79.4113 35.416 79.7742 35.375C79.9355 35.3341 80.1774 35.4979 80.1774 35.2522C80.2177 35.2522 80.2581 35.2113 80.2984 35.2522C80.2984 35.3341 80.5 35.2522 80.4193 35.2931C80.4597 35.2522 80.7419 35.4569 81.1048 35.375C81.629 35.2522 82.2339 35.4569 82.7581 35.2113C82.9193 34.9247 82.5968 34.6381 82.6371 34.3105C82.1532 34.1058 82.3145 33.6964 81.871 33.4507ZM80.9839 34.5971C80.7419 34.5152 80.7419 34.7609 80.5403 34.8428C80.2177 34.8018 79.9355 35.0475 79.6532 34.7609C79.4919 34.8018 79.371 34.7609 79.2903 34.679C79.371 34.4333 79.129 34.3105 78.9677 34.1877C79.3306 33.8601 79.2903 33.3688 79.6532 33.0822C79.6935 32.7137 79.6532 32.3043 79.9758 32.0996C80.1371 32.1405 80.1774 31.9768 80.3387 32.0587C80.621 32.3043 80.6613 32.7137 80.9032 32.9594C81.0242 33.2869 81.1452 33.4507 81.1855 33.8192C81.3468 34.0649 81.1048 34.3515 80.9839 34.5971Z" fill="#222222"/>
<path d="M119.411 31.1985L61.7903 0.327543C61.3871 0.122829 60.9435 0 60.4597 0C59.9758 0 59.5726 0.122829 59.129 0.327543L1.58871 31.1985C0.137097 31.9764 0.137097 34.0645 1.58871 34.8015L59.2097 65.6725C59.6129 65.8772 60.0564 66 60.5403 66C61.0242 66 61.4274 65.8772 61.871 65.6725L119.411 34.8015C120.863 34.0236 120.863 31.9355 119.411 31.1985ZM118.645 33.3685L61.0242 64.2395C60.8629 64.3213 60.6613 64.3623 60.4597 64.3623C60.2581 64.3623 60.0564 64.3213 59.8952 64.2395L2.31452 33.3685C2.15323 33.2457 2.1129 33.1228 2.1129 33C2.1129 32.8772 2.15323 32.7134 2.31452 32.6315L59.9355 1.76055C60.0968 1.67866 60.2984 1.63772 60.5 1.63772C60.7016 1.63772 60.9032 1.67866 61.0645 1.76055L118.645 32.6315C118.806 32.7134 118.847 32.8772 118.847 33C118.887 33.1228 118.847 33.2457 118.645 33.3685Z" fill="#222222"/>
</svg>
