<svg width="35" height="35" viewBox="0 0 35 35" fill="none" xmlns="http://www.w3.org/2000/svg">
<path d="M0.734308 0.734308C0.966485 0.501542 1.2423 0.316867 1.54596 0.190863C1.84962 0.0648578 2.17516 0 2.50392 0C2.83269 0 3.15822 0.0648578 3.46188 0.190863C3.76554 0.316867 4.04136 0.501542 4.27354 0.734308L17.5007 13.9664L30.7278 0.734308C30.9602 0.501918 31.236 0.317577 31.5397 0.191809C31.8433 0.0660408 32.1687 0.00130863 32.4974 0.00130863C32.826 0.00130863 33.1515 0.0660408 33.4551 0.191809C33.7587 0.317577 34.0346 0.501918 34.267 0.734308C34.4994 0.966697 34.6837 1.24258 34.8095 1.54621C34.9353 1.84984 35 2.17527 35 2.50392C35 2.83257 34.9353 3.158 34.8095 3.46163C34.6837 3.76526 34.4994 4.04115 34.267 4.27354L21.0349 17.5007L34.267 30.7278C34.4994 30.9602 34.6837 31.236 34.8095 31.5397C34.9353 31.8433 35 32.1687 35 32.4974C35 32.826 34.9353 33.1515 34.8095 33.4551C34.6837 33.7587 34.4994 34.0346 34.267 34.267C34.0346 34.4994 33.7587 34.6837 33.4551 34.8095C33.1515 34.9353 32.826 35 32.4974 35C32.1687 35 31.8433 34.9353 31.5397 34.8095C31.236 34.6837 30.9602 34.4994 30.7278 34.267L17.5007 21.0349L4.27354 34.267C4.04115 34.4994 3.76526 34.6837 3.46163 34.8095C3.158 34.9353 2.83257 35 2.50392 35C2.17527 35 1.84984 34.9353 1.54621 34.8095C1.24258 34.6837 0.966697 34.4994 0.734308 34.267C0.501918 34.0346 0.317577 33.7587 0.191809 33.4551C0.0660408 33.1515 0.00130863 32.826 0.00130863 32.4974C0.00130863 32.1687 0.0660408 31.8433 0.191809 31.5397C0.317577 31.236 0.501918 30.9602 0.734308 30.7278L13.9664 17.5007L0.734308 4.27354C0.501542 4.04136 0.316867 3.76554 0.190863 3.46188C0.0648578 3.15822 0 2.83269 0 2.50392C0 2.17516 0.0648578 1.84962 0.190863 1.54596C0.316867 1.2423 0.501542 0.966485 0.734308 0.734308Z" fill="#222222"/>
</svg>
